<svg xmlns="http://www.w3.org/2000/svg" viewBox="0 0 48 48"><path d="M24 19.1c5.1 0 9.3-4.2 9.3-9.3S29.1.5 24 .5c-5.1 0-9.3 4.2-9.3 9.3s4.2 9.3 9.3 9.3zm0-16.6c4 0 7.3 3.3 7.3 7.3S28 17.1 24 17.1s-7.3-3.3-7.3-7.3S20 2.5 24 2.5z"/><path d="m21.2 14 2.8-2.8 2.8 2.8 1.4-1.4-2.8-2.8L28.2 7l-1.4-1.4L24 8.4l-2.8-2.8L19.8 7l2.8 2.8-2.8 2.8zM38.6 39l9-3.2L40.8 17l-9 3.2.9 2.5h-2.8l-5.2-1.5c-1.6-.5-3.3 0-4.4 1.3l-.2.2h-4.7l.9-2.5-9-3.2L.4 35.8l9 3.2 1-2.9L21 46.7c.5.5 1.2.8 2 .8s1.5-.3 2-.8c.2-.2.4-.4.5-.7 1.1.9 2.8.8 3.8-.2.3-.3.5-.6.6-1 1 .3 2 0 2.8-.7.5-.5.8-1.1.8-1.8.6-.1 1.3-.3 1.8-.8s.8-1.2.8-2c0-.3-.1-.6-.2-.9l2-1 .7 1.4zm1-19.5L45 34.6l-5.2 1.9-5.4-15.1 5.2-1.9zM3 34.6l5.4-15.1 5.2 1.9-5.4 15.1L3 34.6zm30.9 5.5c-.3.3-.8.3-1.2 0L26.6 34l-1.4 1.4 6.1 6.1c.3.3.3.8 0 1.2s-.8.3-1.2 0l-.9-.9-5.2-5.3-1.4 1.4 5.3 5.3c.2.2.2.4.2.6 0 .2-.1.4-.2.6-.3.3-.9.3-1.2 0L21.3 39l-1.4 1.4 3.7 3.7c.2.2.2.4.2.6s-.1.4-.2.6c-.3.3-.9.3-1.2 0L11.2 34.1l3.4-9.4h3.7L16 27.3c-.6.7-.8 1.5-.7 2.4.1.9.5 1.6 1.2 2.2.6.4 1.2.7 1.9.7.2 0 .5 0 .7-.1l6.7-1.5 8.1 8c.2.2.2.4.2.6s0 .4-.2.5zm.9-3.1L29 31.2l2.2.3.3-2-5.3-.8-7.6 1.7c-.3.1-.7 0-1-.2-.3-.2-.4-.5-.4-.8 0-.3.1-.6.3-.9l4.2-4.9c.6-.7 1.5-.9 2.3-.7l5.4 1.6h3.9l4 11.1-2.5 1.4z"/></svg>