<svg xmlns="http://www.w3.org/2000/svg" data-name="Layer 1" viewBox="0 0 512 512"><path fill="#52ddb2" d="M460,266.72a44.19,44.19,0,0,1,0-21.44l5.92-23.52A43.26,43.26,0,0,0,455,180.64l-17-17.28a43.55,43.55,0,0,1-10.72-18.56l-6.72-23.52A42.25,42.25,0,0,0,400,95.2H336.48l17.89,97.12h4.51a46.72,46.72,0,0,1,12.64,49.12,48.44,48.44,0,0,0,0,29.12,46.5,46.5,0,0,1,2.4,14.72A47.09,47.09,0,0,1,348,327.36,49.38,49.38,0,0,0,327.36,348a47.09,47.09,0,0,1-42.08,25.92,46.5,46.5,0,0,1-14.72-2.4,48.44,48.44,0,0,0-29.12,0,46.5,46.5,0,0,1-14.72,2.4A47.09,47.09,0,0,1,184.64,348,49.38,49.38,0,0,0,164,327.36a47.09,47.09,0,0,1-25.92-42.08,46.5,46.5,0,0,1,2.4-14.72,48.44,48.44,0,0,0,0-29.12,46.72,46.72,0,0,1,12.64-49.12h2.42L190.6,95.2H112a42.25,42.25,0,0,0-20.64,26.08L84.64,144.8a43.55,43.55,0,0,1-10.72,18.56L57,180.64a43.26,43.26,0,0,0-10.88,41.12L52,245.28a44.19,44.19,0,0,1,0,21.44l-5.92,23.52A43.26,43.26,0,0,0,57,331.36l17,17.28A43.55,43.55,0,0,1,84.64,367.2l6.72,23.52a42.76,42.76,0,0,0,29.92,29.92l23.52,6.72a43.55,43.55,0,0,1,18.56,10.72l17.28,17a43.26,43.26,0,0,0,41.12,10.88L245.28,460a44.19,44.19,0,0,1,21.44,0l23.52,5.92A43.26,43.26,0,0,0,331.36,455l17.28-17a43.55,43.55,0,0,1,18.56-10.72l23.52-6.72a42.76,42.76,0,0,0,29.92-29.92l6.72-23.52a43.55,43.55,0,0,1,10.72-18.56l17-17.28a43.26,43.26,0,0,0,10.88-41.12Z"/><path fill="#2b9e7d" d="M258.72 389.92a46.5 46.5 0 0 0 14.72-2.4 48.44 48.44 0 0 1 29.12 0 46.5 46.5 0 0 0 14.72 2.4A47.09 47.09 0 0 0 359.36 364 49.38 49.38 0 0 1 380 343.36a47.09 47.09 0 0 0 25.92-42.08 46.5 46.5 0 0 0-2.4-14.72 48.44 48.44 0 0 1 0-29.12 46.72 46.72 0 0 0-12.64-49.12l-17-15-15-1a46.72 46.72 0 0 1 12.64 49.12 48.44 48.44 0 0 0 0 29.12 46.5 46.5 0 0 1 2.4 14.72A47.09 47.09 0 0 1 348 327.36 49.38 49.38 0 0 0 327.36 348a47.09 47.09 0 0 1-42.08 25.92 46.5 46.5 0 0 1-14.72-2.4 48.44 48.44 0 0 0-29.12 0 46.5 46.5 0 0 1-14.72 2.4c-1.19 0-2.31-.39-3.49-.48A46.79 46.79 0 0 0 258.72 389.92zM211.36 454.08a43.55 43.55 0 0 0-18.56-10.72l-23.52-6.72a42.76 42.76 0 0 1-29.92-29.92l-6.72-23.52a43.55 43.55 0 0 0-10.72-18.56l-17-17.28a43.26 43.26 0 0 1-10.88-41.12L100 282.72a44.19 44.19 0 0 0 0-21.44l-5.92-23.52A43.26 43.26 0 0 1 105 196.64l17-17.28a43.55 43.55 0 0 0 10.72-18.56l6.72-23.52A42.25 42.25 0 0 1 160 111.2h24.83l5.77-16H112a42.25 42.25 0 0 0-20.64 26.08L84.64 144.8a43.55 43.55 0 0 1-10.72 18.56L57 180.64a43.26 43.26 0 0 0-10.88 41.12L52 245.28a44.19 44.19 0 0 1 0 21.44l-5.92 23.52A43.26 43.26 0 0 0 57 331.36l17 17.28A43.55 43.55 0 0 1 84.64 367.2l6.72 23.52a42.76 42.76 0 0 0 29.92 29.92l23.52 6.72a43.55 43.55 0 0 1 18.56 10.72l17.28 17a43.26 43.26 0 0 0 41.12 10.88l1.32-.33z"/><path fill="#fd7" d="M100.64,407.68A23.87,23.87,0,0,0,104,408a16,16,0,0,0,0-32,15.88,15.88,0,0,0-14.24,9"/><path fill="#ff5576" d="M206.4,369.28A13.89,13.89,0,0,1,208,376a16,16,0,1,1-16-16,5.44,5.44,0,0,1,1.6.16"/><path fill="#fd8f48" d="M90.24,242.88A13.71,13.71,0,0,0,96,244a16,16,0,0,0,0-32,15.82,15.82,0,0,0-14.08,8.64"/><path fill="#ff5576" d="M419,395.68A16.64,16.64,0,0,1,408,400a16,16,0,1,1,15.52-19.52"/><path fill="#fd7" d="M435.36,160a16,16,0,1,0,16.48,17.44"/><path fill="#fd8f48" d="M369.28,305.6A13.89,13.89,0,0,1,376,304a16,16,0,1,1-16,16,5.44,5.44,0,0,1,.16-1.6"/><path fill="#2b9e7d" d="M158.4,78.08a62,62,0,0,0,5-4.16l17.28-17a43.26,43.26,0,0,1,41.12-10.88L245.28,52a44.19,44.19,0,0,0,21.44,0l23.52-5.92A43.26,43.26,0,0,1,331.36,57l17.28,17a62,62,0,0,0,5,4.16l-97.6,48Z"/><rect width="72" height="72" x="220" y="79.78" fill="#ff5576" rx="1" ry="1"/><path fill="#ff5576" d="M220,142.79,133,157.3a18,18,0,0,1-21-17.76V92a18,18,0,0,1,21-17.75l87,14.5Z"/><path fill="#ff5576" d="M220,142.79,133,157.3a18,18,0,0,1-21-17.76V92a18,18,0,0,1,21-17.75l87,14.5Z"/><path fill="#ff5576" d="M112,112V92a18,18,0,0,1,21-17.75l25.37,4.22"/><path fill="#ff5576" d="M112,112V92a18,18,0,0,1,21-17.75l25.37,4.22"/><path fill="#fff" d="M112,92V128a16,16,0,0,0,16-16V92.05a1.85,1.85,0,0,1,.72-1.53,1.93,1.93,0,0,1,1.59-.46l10.46,1.75c8.83,1.5,17.9-4.29,19.37-13-14.92-2.5-.95-.15-.95-.16L133,74.29A18,18,0,0,0,112,92Z"/><polygon fill="#ff5576" points="146.9 154.97 124 194.65 157.88 192.46 172.92 222.89 219.08 142.94 146.9 154.97"/><path fill="#ff5576" d="M292,88.79l87-14.5A18,18,0,0,1,400,92v47.5a18,18,0,0,1-21,17.76l-87-14.51Z"/><path fill="#b73958" d="M394 152.89a70.2 70.2 0 0 0-40.22-24.61l-10.14-2.07a32 32 0 0 1-24.91-38l.85-4L292 88.79v54l87 14.51A17.85 17.85 0 0 0 394 152.89zM118 152.89a70.2 70.2 0 0 1 40.22-24.61L182 123.4A24.1 24.1 0 0 0 200.7 94.63l-2.06-9.4L220 88.79v54L133 157.3A17.85 17.85 0 0 1 118 152.89z"/><polygon fill="#ff5576" points="292.92 142.94 339.08 222.89 354.12 192.46 388 194.65 365.1 154.97 292.92 142.94"/><path fill="#444b54" d="M353.59 86.08a7.88 7.88 0 0 1-4.71-1.55 68.23 68.23 0 0 1-5.6-4.67l-17.53-17.2a35.07 35.07 0 0 0-33.5-8.85l-23.58 6a52.72 52.72 0 0 1-25.34 0l-23.52-5.94A35.17 35.17 0 0 0 186.2 62.7L169 79.62a68.66 68.66 0 0 1-5.85 4.91 8 8 0 1 1-9.43-12.91c1.51-1.12 2.92-2.39 4.31-3.64l17-16.73a50.93 50.93 0 0 1 48.75-12.91l23.45 5.89a35.43 35.43 0 0 0 17.54 0l23.51-5.9A50.81 50.81 0 0 1 336.92 51.2l17.33 17c1.14 1 2.55 2.28 4.06 3.4a8 8 0 0 1-4.72 14.46zM210.7 475.36a51 51 0 0 1-35.62-14.56l-17.33-17a35.44 35.44 0 0 0-15.11-8.72l-23.56-6.73a50.94 50.94 0 0 1-35.44-35.49L77 369.41a35.48 35.48 0 0 0-8.76-15.19L51.25 337a51 51 0 0 1-12.91-48.75l5.91-23.45a35.91 35.91 0 0 0 0-17.54l-5.9-23.51A50.9 50.9 0 0 1 51.2 175.08l17-17.33a35.44 35.44 0 0 0 8.72-15.11l6.73-23.56A50.31 50.31 0 0 1 108.2 88.16a8 8 0 1 1 7.6 14.09 34.29 34.29 0 0 0-16.72 21.13L92.33 147a51.8 51.8 0 0 1-12.67 21.94l-17 17.31a35.1 35.1 0 0 0-8.85 33.5l5.94 23.58a52.23 52.23 0 0 1 0 25.34l-5.94 23.52A35.16 35.16 0 0 0 62.7 325.8L79.62 343a51.75 51.75 0 0 1 12.72 22l6.71 23.47a34.93 34.93 0 0 0 24.36 24.4L147 419.67a51.8 51.8 0 0 1 21.94 12.67l17.31 17a35.07 35.07 0 0 0 33.5 8.85l23.58-6a52.72 52.72 0 0 1 25.34 0l23.52 5.93a35 35 0 0 0 33.61-8.86L343 432.38a51.75 51.75 0 0 1 22-12.72L388.52 413a34.93 34.93 0 0 0 24.4-24.36L419.67 365a51.8 51.8 0 0 1 12.67-21.94l17-17.31a35.1 35.1 0 0 0 8.85-33.5l-5.94-23.58a52.23 52.23 0 0 1 0-25.34l5.94-23.52a35.16 35.16 0 0 0-8.87-33.61L432.38 169a51.75 51.75 0 0 1-12.72-22 8 8 0 1 1 15.4-4.31 35.48 35.48 0 0 0 8.75 15.14L460.75 175a51 51 0 0 1 12.91 48.75l-5.91 23.45a35.91 35.91 0 0 0 0 17.54l5.9 23.51a50.9 50.9 0 0 1-12.87 48.64l-17 17.33a35.44 35.44 0 0 0-8.72 15.11l-6.73 23.56a50.94 50.94 0 0 1-35.49 35.44l-23.43 6.69a35.48 35.48 0 0 0-15.19 8.76L337 460.75a50.93 50.93 0 0 1-48.75 12.91l-23.45-5.89a35.43 35.43 0 0 0-17.54 0l-23.51 5.92A51.79 51.79 0 0 1 210.7 475.36z"/><path fill="#444b54" d="M292 146.56h-.31a8 8 0 0 1 0-16 8.13 8.13 0 0 1 8.15 8A7.86 7.86 0 0 1 292 146.56zM285.28 381.92A53.92 53.92 0 0 1 268 379.09a41 41 0 0 0-24 0c-25.58 8.61-54.31-3.49-66.51-27.46a41.24 41.24 0 0 0-17.25-17.18 55 55 0 0 1-30.19-49.16A53.92 53.92 0 0 1 132.91 268a40.76 40.76 0 0 0 0-24 8 8 0 0 1 15.13-5.19 56.48 56.48 0 0 1 0 34.32 38.23 38.23 0 0 0-2 12.12 39.15 39.15 0 0 0 21.54 35 57.26 57.26 0 0 1 24.1 24c8.75 17.15 29.19 25.68 47.17 19.67a56.54 56.54 0 0 1 34.27 0c17.78 5.93 38.4-2.57 47.07-19.57a57.26 57.26 0 0 1 24-24.1 39.18 39.18 0 0 0 21.65-35 38.49 38.49 0 0 0-2-12.17 56.42 56.42 0 0 1 0-34.27 38.23 38.23 0 0 0 2-12.12 38.79 38.79 0 0 0-12.45-28.52 8 8 0 1 1 10.81-11.78 54.74 54.74 0 0 1 17.64 40.3A53.92 53.92 0 0 1 379.09 244a40.76 40.76 0 0 0 0 24 54.18 54.18 0 0 1 2.84 17.31 55 55 0 0 1-30.3 49.2 41.24 41.24 0 0 0-17.18 17.25A55 55 0 0 1 285.28 381.92zM201.52 153.45a8.12 8.12 0 0 1-7.75-5.4A7.82 7.82 0 0 1 198.59 138l.47-.16A8 8 0 1 1 204.12 153 8.32 8.32 0 0 1 201.52 153.45zM310.88 153.59a8 8 0 0 1-2.54-.4A8.25 8.25 0 0 1 303.05 143a7.86 7.86 0 0 1 9.89-5.14l.47.16a8 8 0 0 1-2.53 15.59zM220.31 146.56H220a8 8 0 0 1 0-16 8.14 8.14 0 0 1 8.16 8A7.87 7.87 0 0 1 220.31 146.56z"/><path fill="#444b54" d="M276,159.31H236a24,24,0,0,1-24-24v-40a24,24,0,0,1,24-24h40a24,24,0,0,1,24,24v40A24,24,0,0,1,276,159.31Zm-40-72a8,8,0,0,0-8,8v40a8,8,0,0,0,8,8h40a8,8,0,0,0,8-8v-40a8,8,0,0,0-8-8Z"/><path fill="#444b54" d="M172.92 230.42h-.26a8 8 0 0 1-6.91-4.45l-12.69-25.64-28.54 1.84a7.8 7.8 0 0 1-7.32-3.76 8 8 0 0 1-.12-8.22L140 150.52a8 8 0 0 1 5.61-3.9l72.18-12A8 8 0 0 1 226 146.48l-46.16 79.94A8 8 0 0 1 172.92 230.42zm-15-46.42a8 8 0 0 1 7.17 4.45l8.42 17 30.2-52.32L152 161.78l-13.54 23.45 19-1.21A4.43 4.43 0 0 1 157.88 184zM382 165.08a27 27 0 0 1-4.3-.36l-87-14.5a8 8 0 0 1-6.69-7.89v-54a8 8 0 0 1 6.69-7.89l87-14.5A26 26 0 0 1 408 91.58v47.5a26 26 0 0 1-26 26zm-82-29.53l80.36 13.39A10 10 0 0 0 392 139.08V91.58A9.84 9.84 0 0 0 388.47 84a10 10 0 0 0-8.11-2.23L300 95.11z"/><path fill="#444b54" d="M339.08 230.42a7.94 7.94 0 0 1-6.92-4L286 146.48a8 8 0 0 1 8.23-11.89l72.18 12a8 8 0 0 1 5.61 3.9l22.9 39.67a8 8 0 0 1-.12 8.22 7.8 7.8 0 0 1-7.32 3.76l-28.54-1.84L346.25 226a8 8 0 0 1-6.92 4.45zm-30.75-77.26l30.2 52.32 8.42-17a7.84 7.84 0 0 1 7.69-4.43l18.95 1.21-13.54-23.45zM220 123.33H180a8 8 0 0 1 0-16h40a8 8 0 0 1 0 16zM332 123.33H292a8 8 0 0 1 0-16h40a8 8 0 0 1 0 16zM164 440.31a83.42 83.42 0 0 1-9.34-.36 8 8 0 1 1 1.72-15.9 75.62 75.62 0 0 0 7.62.26 179.34 179.34 0 0 0 132.48-59l11.74 10.88A195.25 195.25 0 0 1 164 440.31zM443.47 350.47c-4.42 0-8-2.85-8-7.27C428.31 300.38 404.66 261 369 233.38a8 8 0 0 1 9.78-12.66 192.91 192.91 0 0 1 72.6 121C451.41 346.16 447.88 350.47 443.47 350.47zM75.36 358.33a7.93 7.93 0 0 1-8-7.92v-.18a8 8 0 1 1 8 8.1zM336.64 343.84h-.16a8 8 0 1 1 .16 0zM149.92 324.31a8 8 0 0 1-5.23-2A194.57 194.57 0 0 1 65.77 166.08a23.61 23.61 0 0 1 .26-4 8 8 0 1 1 15.78 2.6c0 58 27.14 111.68 72.69 145a9.39 9.39 0 0 1 1 .88 8 8 0 0 1-5.58 13.73zM104 416a31.39 31.39 0 0 1-4.42-.38 8 8 0 0 1-6.85-9 8.28 8.28 0 0 1 9-6.82h0c5.27.76 10.22-2.63 10.22-7.77a8 8 0 0 0-8-8 7.84 7.84 0 0 0-7 4.44 8 8 0 1 1-14.41-7A24 24 0 1 1 104 416zM192 400a24 24 0 0 1 0-48 12.84 12.84 0 0 1 4.12.56 8 8 0 0 1 5.07 10.13c-.1.28-.21.56-.33.83a8 8 0 0 1 12.61 2A22.11 22.11 0 0 1 216 376 24 24 0 0 1 192 400zm-.94-32.25c-3.47.25-7.06 3.84-7.06 8.25a8 8 0 0 0 16 0 5.85 5.85 0 0 0-.66-2.95 8 8 0 0 1-.2-7.13A8 8 0 0 1 191.06 367.75z"/><path fill="#444b54" d="M96,252a21.38,21.38,0,0,1-9.11-1.86,8,8,0,0,1,6.69-14.53A5.81,5.81,0,0,0,96,236a8,8,0,0,0,0-16,7.77,7.77,0,0,0-6.92,4.22,8,8,0,1,1-14.31-7.16A24,24,0,1,1,96,252Z"/><circle cx="104" cy="328" r="8" fill="#444b54"/><circle cx="136" cy="356" r="8" fill="#444b54"/><circle cx="80" cy="296" r="8" fill="#444b54"/><circle cx="328" cy="408" r="8" fill="#444b54"/><circle cx="360" cy="376" r="8" fill="#444b54"/><circle cx="424" cy="232" r="8" fill="#444b54"/><circle cx="288" cy="432" r="8" fill="#444b54"/><circle cx="100" cy="177.97" r="8" fill="#444b54"/><path fill="#444b54" d="M408 408a24 24 0 1 1 23.33-29.25 8 8 0 0 1-6.08 9.55 8.6 8.6 0 0 1-2.89.11 7.73 7.73 0 0 1 2.69 2 8 8 0 0 1-.72 11.28A24.68 24.68 0 0 1 408 408zm0-32a8 8 0 0 0 0 16 9 9 0 0 0 5.77-2.31 8.27 8.27 0 0 1 6.45-1.92 8 8 0 0 1-4.52-5.55A7.94 7.94 0 0 0 408 376zM436 200a24 24 0 0 1-.94-48c5.25-.17 8.13 3.3 8.3 7.7a8 8 0 0 1-7.7 8.3 8 8 0 0 0 .34 16 7.92 7.92 0 0 0 7.88-7.19 8.15 8.15 0 0 1 8.59-7.34 8 8 0 0 1 7.34 8.59A24 24 0 0 1 436 200zM376 344a24 24 0 0 1-24-24 12.84 12.84 0 0 1 .56-4.12 8 8 0 0 1 10.13-5.07c.28.1.56.21.83.33a8 8 0 0 1 2-12.61A22.11 22.11 0 0 1 376 296a24 24 0 0 1 0 48zm-10.08-31.14a8 8 0 0 1 1.83 8.08c.25 3.47 3.84 7.06 8.25 7.06a8 8 0 0 0 0-16 5.85 5.85 0 0 0-2.95.66A8 8 0 0 1 365.92 312.86z"/><ellipse cx="125.6" cy="88.33" fill="#fff" rx="3.65" ry="4.95" transform="rotate(-45 125.596 88.326)"/><path fill="#444b54" d="M130,165.08a26,26,0,0,1-26-26V91.58a26,26,0,0,1,30.27-25.64l87,14.5A8,8,0,0,1,228,88.33v54a8,8,0,0,1-6.69,7.89l-87,14.5A27,27,0,0,1,130,165.08Zm0-83.5A10,10,0,0,0,123.53,84,9.84,9.84,0,0,0,120,91.58v47.5a10,10,0,0,0,11.64,9.86L212,135.55V95.11L131.64,81.72A9.3,9.3,0,0,0,130,81.58Zm90,60.75h0Z"/></svg>