<svg xmlns="http://www.w3.org/2000/svg" width="1000" height="1000"><path fill="#754B4B" d="m362.961 871.864-22.498.511-6.376-178.707h38.066z"/><path fill="#212121" d="m362.961 871.864-4.999-.369-1.25-177.228 15.441-.599z" opacity=".2"/><path fill="#26A69A" d="M576.452 674.573c-88.979-53.486-185.339-218.815-223.332-359.829-43.876 141.013-142.955 303.916-223.333 364.698 9.559 9.65 23.175 21.392 46.807 34.386 13.296-3.316 45.369-30.792 52.211-36.593-.893 5.802-24.247 38.229-37.933 47.75 3.461 1.727 6.606 3.67 10.265 5.355 6.868-.375 37.932-21.865 37.932-21.865s-11.316 24.015-16.065 28.113c37.244 15.676 75.467 23.514 124.459 23.515 54.939 0 112.824-13.991 154.896-33.333-16.233-15.46-26.776-37.931-26.776-37.931s24.992 21.865 42.806 25.718c26.699-14.167 47.129-28.947 58.063-39.984z"/><path fill="#26A69A" d="M525.331 501.782c-68.611-41.24-142.914-168.72-172.211-277.459-33.83 108.739-110.23 234.347-172.213 281.216 16.04 16.189 61.883 45.609 119.609 57.258 11.292-3.818 27.803-41.749 27.803-41.749s-3.124 34.809-8.888 45.056c3.804.447 9.431.807 13.309 1.075 7.629-4.182 14.768-22.926 14.768-22.926s.447 13.834 1.25 23.483c32.265 0 63.724-7.126 91.22-17.11 1.245-10.836-10.805-34.932-10.805-34.932s24.098 25.436 36.862 24.152c27.692-12.904 48.977-27.646 59.296-38.064z"/><path fill="#FFF" d="M348.508 567.756c-.784-7.811-1.288-15.641-1.697-23.481l1.348.226a100.923 100.923 0 0 1-2.666 6.442 88.026 88.026 0 0 1-3.116 6.249c-1.13 2.043-2.358 4.047-3.785 5.948a27.368 27.368 0 0 1-2.342 2.738c-.43.433-.889.846-1.369 1.245l-.759.568-.818.517-.256.162-.39-.02c-4.446-.228-8.891-.442-13.388-.885l-2.005-.198.97-1.837c.819-1.552 1.445-3.316 1.993-5.097a74.058 74.058 0 0 0 1.421-5.47c.829-3.698 1.485-7.457 2.064-11.228a308.03 308.03 0 0 0 1.501-11.364c.431-3.795.813-7.617 1.118-11.402l3.815.974a236.453 236.453 0 0 1-2.597 5.884c-.889 1.944-1.8 3.878-2.735 5.802-1.875 3.846-3.814 7.667-5.917 11.424-2.107 3.755-4.358 7.453-6.995 10.982-1.316 1.768-2.735 3.489-4.381 5.106a24.63 24.63 0 0 1-2.696 2.323c-.996.722-2.128 1.386-3.491 1.855l-.658.227-.647-.138a176.573 176.573 0 0 1-7.481-1.74 333.113 333.113 0 0 1-7.389-1.962 203.658 203.658 0 0 1-7.326-2.175c-1.216-.379-2.432-.756-3.64-1.162-1.209-.402-2.423-.784-3.623-1.214l-3.598-1.29c-1.2-.426-2.385-.9-3.578-1.347a91.05 91.05 0 0 1-3.547-1.423l-3.524-1.478-3.479-1.586c-1.163-.516-2.297-1.104-3.437-1.67-1.134-.58-2.278-1.132-3.385-1.767l-3.321-1.877a.25.25 0 0 1 .212-.452l.01.004 3.545 1.356c1.166.48 2.367.878 3.555 1.302 1.192.415 2.361.876 3.567 1.251l3.586 1.185 3.605 1.123c1.197.384 2.409.726 3.618 1.075s2.407.724 3.623 1.052l3.639.995c2.437.628 4.856 1.306 7.302 1.893 1.22.304 2.438.61 3.665.89l3.667.872c2.447.572 4.899 1.121 7.357 1.636 2.451.51 4.928 1.034 7.349 1.49l-1.306.088c1.296-.478 2.823-1.679 4.177-3.028 1.371-1.366 2.662-2.925 3.908-4.534 2.475-3.245 4.753-6.738 6.931-10.302a199.213 199.213 0 0 0 6.19-10.957 265.1 265.1 0 0 0 2.868-5.623 220.47 220.47 0 0 0 2.72-5.677l5.121-11.161-1.306 12.136a351.557 351.557 0 0 1-1.443 11.512 310.088 310.088 0 0 1-1.829 11.451c-.69 3.808-1.458 7.608-2.414 11.386a76.838 76.838 0 0 1-1.631 5.644c-.634 1.871-1.337 3.733-2.363 5.558l-1.035-2.035c4.351.553 8.797.87 13.229 1.266l-.646.142.656-.384.641-.446c.418-.324.828-.667 1.224-1.039a25.245 25.245 0 0 0 2.233-2.438c1.403-1.739 2.659-3.633 3.826-5.583a86.397 86.397 0 0 0 3.263-6.015 100.572 100.572 0 0 0 2.838-6.239l1.282-3.115.066 3.341c.156 7.828.336 15.667.802 23.486a.25.25 0 0 1-.235.264.259.259 0 0 1-.261-.231z"/><path fill="#26A69A" d="M480.138 350.363C429.537 319.945 374.726 225.92 353.12 145.721c-24.953 80.199-81.301 172.851-127.019 207.413 5.313 5.365 15.063 12.699 28.051 19.93 8.568-.618 31.922-22.334 31.922-22.334s-12.198 22.016-20.558 28.206a215.545 215.545 0 0 0 24.151 9.803c6.521-3.201 20.355-18.746 20.355-18.746s-3.719 16.735-9.801 21.99c15.324 4.272 32.125 7.032 49.68 7.031 41.777 0 81.722-16.197 107.237-31.571-3.422-3.476-14.579-18.201-14.579-18.201s19.635 11.156 25.072 11.375c5.282-3.725 9.519-7.236 12.507-10.254z"/><path fill="#26A69A" d="M265.517 378.935a215.545 215.545 0 0 0 24.151 9.803c6.521-3.201 20.355-18.746 20.355-18.746s-3.719 16.735-9.801 21.99c15.324 4.272 32.125 7.032 49.68 7.031 41.777 0 81.722-16.197 107.237-31.571l-191.622 11.493z"/><path fill="#FFF" d="M265.624 378.709a222.97 222.97 0 0 0 24.269 9.361l-.536.035c.471-.29.952-.539 1.414-.855.457-.331.922-.638 1.371-.985l1.333-1.06 1.298-1.119a109.804 109.804 0 0 0 4.997-4.736 213.264 213.264 0 0 0 9.396-10.12l2.912-3.341-.937 4.351a90.578 90.578 0 0 1-1.524 5.993 76.076 76.076 0 0 1-1.959 5.871c-.357.972-.77 1.928-1.178 2.887-.448.947-.868 1.904-1.396 2.828-.255.465-.494.935-.796 1.385-.297.451-.557.916-.888 1.355-.337.437-.665.877-1.015 1.308l-1.201 1.227-.567-2.53c13.069 3.453 26.469 5.632 39.923 6.206 3.345.142 6.769.177 10.048.104 3.389-.16 6.846-.17 10.137-.538 1.664-.156 3.322-.271 4.986-.457l4.998-.656c1.668-.195 3.326-.468 4.981-.758l4.968-.839 4.942-.996c1.654-.294 3.291-.68 4.928-1.064 1.634-.394 3.281-.734 4.914-1.138l4.886-1.268c1.635-.398 3.248-.884 4.868-1.344 1.614-.48 3.25-.89 4.848-1.427 3.209-1.03 6.43-2.033 9.61-3.167 1.6-.541 3.192-1.101 4.765-1.716l4.748-1.779c3.14-1.253 6.282-2.512 9.389-3.859l2.339-.996 2.312-1.056c1.543-.701 3.11-1.363 4.629-2.118 1.522-.748 3.078-1.441 4.599-2.199l4.575-2.272.006-.003a.249.249 0 0 1 .335.113.25.25 0 0 1-.084.319l-4.247 2.875a200.495 200.495 0 0 1-4.344 2.732c-1.447.917-2.945 1.743-4.423 2.61-1.482.86-2.981 1.691-4.5 2.482-3.004 1.657-6.098 3.135-9.187 4.634-3.118 1.428-6.237 2.875-9.434 4.133-1.595.637-3.173 1.321-4.784 1.921l-4.847 1.763c-1.609.608-3.262 1.091-4.892 1.642-1.639.525-3.263 1.102-4.927 1.545l-4.973 1.402c-1.661.457-3.345.829-5.02 1.229-3.34.856-6.748 1.417-10.132 2.072-1.699.292-3.412.511-5.118.76-1.707.249-3.412.501-5.134.636l-5.15.495c-1.725.133-3.468.195-5.199.295-3.494.25-6.854.177-10.27.235a167.17 167.17 0 0 1-10.368-.395c-13.747-.929-27.327-3.492-40.494-7.323l-2.436-.709 1.869-1.822.952-.927.877-1.077c.291-.363.537-.783.809-1.172.277-.385.508-.817.752-1.236.502-.827.921-1.723 1.363-2.599.409-.9.824-1.797 1.19-2.723a75.883 75.883 0 0 0 2.039-5.631 88.917 88.917 0 0 0 1.663-5.761l1.975 1.01a214.701 214.701 0 0 1-9.818 9.923 111.365 111.365 0 0 1-5.231 4.65l-1.367 1.105-1.418 1.056c-.478.346-.988.662-1.48.994-.503.322-1.059.593-1.585.889l-.246.138-.29-.103a209.753 209.753 0 0 1-24.033-10.245.249.249 0 0 1 .215-.45z"/><path fill="#26A69A" d="M441.452 226.581C406.259 205.425 368.145 123.77 353.12 68c-17.353 55.77-56.538 136.472-88.332 160.509 10.417 10.514 45.331 31.902 86.096 31.902-.55-7.859 1.532-27.79 1.532-27.79s9.818 24.097 18.144 26.157c4.865-.789 9.63-1.836 14.251-3.079-3.835-7.014-5.619-20.401-5.619-20.401s11.007 14.28 16.853 16.916c21.409-7.518 38.373-18.535 45.407-25.633z"/><path fill="#26A69A" d="M264.788 228.509c10.417 10.514 45.331 31.902 86.096 31.902-.55-7.859 1.532-27.79 1.532-27.79s9.818 24.097 18.144 26.157c4.865-.789 9.63-1.836 14.251-3.079-3.835-7.014-5.619-20.401-5.619-20.401s11.007 14.28 16.853 16.916c21.408-7.518 38.373-18.535 45.407-25.633l-176.664 1.928z"/><path fill="#FFF" d="m264.959 228.327 2.168 1.968 2.265 1.823c.739.622 1.558 1.159 2.338 1.737.792.563 1.563 1.155 2.388 1.672 1.626 1.067 3.238 2.152 4.925 3.123l2.504 1.494 2.56 1.397c1.691.958 3.438 1.813 5.181 2.671 1.727.892 3.51 1.667 5.284 2.457 1.76.821 3.566 1.536 5.374 2.245l2.705 1.075 2.749.958c1.831.64 3.655 1.3 5.523 1.82l2.786.832c.926.285 1.855.556 2.8.772l5.641 1.384 5.695 1.115c1.894.389 3.822.573 5.73.87.958.126 1.91.292 2.871.385l2.886.238c1.925.133 3.842.389 5.772.372l5.78.12-1.551 1.664a62.691 62.691 0 0 1-.135-3.594c.001-1.18.005-2.36.039-3.531.059-2.345.157-4.681.292-7.011.263-4.664.611-9.299 1.029-13.956l.661-7.353 2.929 6.842a112.986 112.986 0 0 0 1.641 3.63 127.225 127.225 0 0 0 1.763 3.596 100.802 100.802 0 0 0 3.873 6.967c1.381 2.248 2.859 4.426 4.494 6.373.414.477.829.949 1.262 1.386.431.435.869.859 1.32 1.22.444.376.904.702 1.351.95.449.272.876.412 1.259.527l-.912-.037a136.58 136.58 0 0 0 7.023-1.448c2.329-.54 4.64-1.156 6.945-1.789l-1.54 3.603-.671-1.309c-.222-.437-.394-.875-.593-1.313-.201-.438-.367-.876-.535-1.315-.166-.439-.346-.878-.489-1.317a54.423 54.423 0 0 1-.859-2.64 73.019 73.019 0 0 1-.743-2.647 75 75 0 0 1-1.204-5.32c-.175-.89-.335-1.781-.486-2.675a86.025 86.025 0 0 1-.421-2.718l-1.296-9.466 5.915 7.543 1.809 2.307 1.865 2.291a181.714 181.714 0 0 0 3.848 4.457 82.666 82.666 0 0 0 1.986 2.138c.333.356.671.698 1.015 1.031.343.332.678.689 1.028 1l1.044.958 1.062.879c.354.281.708.512 1.061.774.351.238.677.389 1.012.6l-1.678-.072 3.064-1.044c1.027-.333 2.032-.727 3.049-1.092a81.928 81.928 0 0 0 3.03-1.148c1.001-.404 2.017-.778 3.009-1.206l2.993-1.251 2.969-1.312c.99-.439 1.961-.915 2.944-1.371.986-.449 1.944-.954 2.917-1.429a129.195 129.195 0 0 0 5.765-3.009c.957-.512 1.891-1.061 2.833-1.6a83.744 83.744 0 0 0 2.805-1.652c.938-.55 1.841-1.15 2.758-1.733.916-.584 1.797-1.215 2.698-1.825.869-.647 1.764-1.269 2.615-1.942.874-.65 1.697-1.355 2.529-2.061l.009-.008a.251.251 0 0 1 .353.029.251.251 0 0 1-.007.331c-.743.812-1.488 1.632-2.284 2.396-.768.8-1.616 1.502-2.43 2.251-.845.706-1.677 1.438-2.543 2.121-.866.683-1.723 1.384-2.613 2.035a90.203 90.203 0 0 1-5.411 3.824 130.35 130.35 0 0 1-5.613 3.525c-.955.555-1.902 1.128-2.875 1.652-.97.529-1.931 1.08-2.91 1.592l-2.942 1.535-2.983 1.456c-.994.489-2.012.922-3.018 1.386a86.466 86.466 0 0 1-3.044 1.33c-1.022.426-2.035.88-3.071 1.274l-3.098 1.21-.882.345-.796-.417c-.535-.28-1.119-.556-1.606-.864-.465-.313-.957-.62-1.397-.946l-1.286-.993-1.205-1.03c-.409-.341-.772-.703-1.161-1.053a34.878 34.878 0 0 1-1.128-1.071 89.715 89.715 0 0 1-2.176-2.188 115.289 115.289 0 0 1-4.111-4.534l-1.971-2.328c-.65-.789-1.29-1.558-1.935-2.386l4.619-1.923c.114.81.255 1.686.402 2.53.146.851.302 1.703.472 2.55a134.31 134.31 0 0 0 1.108 5.05c.203.833.418 1.662.651 2.479.229.821.477 1.629.743 2.425.123.406.275.788.416 1.18.141.391.281.783.446 1.153.161.37.305.762.48 1.116l.521 1.065 1.391 2.844-2.931.76c-4.785 1.24-9.643 2.198-14.534 2.922l-.522.077-.391-.115c-.915-.269-1.753-.638-2.455-1.085a13.534 13.534 0 0 1-1.932-1.435 20.442 20.442 0 0 1-1.623-1.579 32.786 32.786 0 0 1-1.431-1.657c-1.792-2.254-3.297-4.617-4.691-7.02a112.626 112.626 0 0 1-3.845-7.334 134.497 134.497 0 0 1-1.731-3.741 117.419 117.419 0 0 1-1.62-3.814l3.589-.511a415.77 415.77 0 0 0-1.33 13.796 214.145 214.145 0 0 0-.443 6.896 127.678 127.678 0 0 0-.114 3.43 59.48 59.48 0 0 0 .048 3.365l.08 1.734-1.631-.07-5.927-.256c-1.979-.029-3.936-.333-5.902-.513l-2.945-.311c-.979-.117-1.949-.308-2.923-.458-1.942-.346-3.904-.581-5.826-1.02l-5.77-1.283-5.691-1.579a39.73 39.73 0 0 1-2.82-.869l-2.8-.928c-1.878-.584-3.707-1.308-5.541-2.012l-2.751-1.053-2.704-1.17c-1.806-.772-3.607-1.55-5.362-2.433-1.768-.852-3.542-1.688-5.259-2.641-1.733-.918-3.468-1.833-5.146-2.851l-2.538-1.486-2.479-1.582c-1.669-1.029-3.264-2.173-4.869-3.297-.814-.546-1.575-1.167-2.357-1.758-.771-.608-1.572-1.167-2.309-1.826l-2.24-1.919-2.108-2.032a.25.25 0 0 1-.006-.354.253.253 0 0 1 .349-.009z"/><path fill="#FFE082" d="M501.682 483.502s-.979.558-2.858 1.538c-1.88.969-4.639 2.391-8.228 4.036-3.572 1.685-7.98 3.572-13.079 5.643-5.128 1.99-10.944 4.183-17.417 6.2l-4.952 1.552-5.193 1.441c-3.508 1.041-7.214 1.811-10.993 2.737-1.89.464-3.839.776-5.796 1.174-1.966.35-3.939.809-5.966 1.081-4.052.549-8.172 1.293-12.418 1.597-2.118.193-4.253.415-6.407.587l-6.527.257c-4.379.251-8.826.147-13.301-.046l-3.362-.198c-.578-.043-1.087-.07-1.721-.136l-1.665-.168-3.336-.337a47.526 47.526 0 0 1-3.362-.41c-2.25-.355-4.54-.614-6.773-1.054-2.231-.452-4.485-.823-6.705-1.346-8.91-1.969-17.64-4.752-25.974-8.138-8.345-3.371-16.227-7.488-23.522-11.996-7.26-4.568-13.903-9.575-19.774-14.798-1.49-1.28-2.897-2.613-4.279-3.929-1.405-1.292-2.713-2.643-4.011-3.957a143.37 143.37 0 0 1-7.143-7.954c-4.392-5.262-7.981-10.446-10.806-15.246-2.821-4.806-4.851-9.249-6.143-13.042l-.482-1.378-.377-1.33c-.235-.862-.496-1.653-.628-2.426l-.434-2.113-.194-1.79c-.155-1.06-.069-1.898-.095-2.447l-.001-.837h.5l.097.813c.089.534.095 1.332.367 2.345.365 2.043 1.295 4.976 2.882 8.514 1.615 3.529 3.921 7.662 6.978 12.129 3.046 4.473 6.857 9.265 11.351 14.181a139.714 139.714 0 0 0 7.285 7.402c1.301 1.236 2.609 2.507 4.014 3.718 1.381 1.235 2.786 2.485 4.271 3.681 5.873 4.862 12.353 9.638 19.393 14.056 7.001 4.479 14.596 8.542 22.579 12.094 7.988 3.542 16.43 6.419 25.061 8.556 2.153.556 4.341.96 6.509 1.448 2.172.476 4.351.764 6.522 1.157l1.632.27 1.667.203 3.329.406 1.66.203c.474.062 1.075.11 1.606.16l3.285.262c4.375.28 8.733.475 13.039.315l6.42-.118c2.122-.126 4.228-.302 6.318-.448 4.189-.211 8.268-.862 12.28-1.32 2.007-.227 3.965-.641 5.916-.946 1.943-.349 3.882-.596 5.763-1.006 3.763-.813 7.458-1.473 10.963-2.408l5.19-1.285 4.957-1.404c6.483-1.825 12.323-3.844 17.482-5.682 5.128-1.919 9.572-3.677 13.175-5.256 3.621-1.539 6.408-2.88 8.307-3.792 1.892-.921 2.885-1.451 2.885-1.451l.239.436zM518.348 624.36l-.576.792c-.402.509-.896 1.327-1.729 2.279-1.585 1.976-4.139 4.654-7.747 7.664-3.611 3.001-8.309 6.268-14.005 9.474-5.695 3.207-12.374 6.375-19.886 9.251-3.767 1.405-7.715 2.817-11.869 4.067l-3.146.955-3.191.899a240.855 240.855 0 0 1-6.617 1.684c-8.969 2.145-18.58 3.771-28.592 4.814a236.247 236.247 0 0 1-31.012 1.159 226.238 226.238 0 0 1-15.951-1.014c-5.34-.546-10.659-1.197-15.991-2.228-2.628-.512-5.236-.889-7.886-1.575l-3.96-.934-1.978-.47-1.94-.555a189.684 189.684 0 0 1-15.287-4.904c-9.993-3.659-19.458-8.227-28.253-13.252-8.754-5.099-16.854-10.652-24.044-16.522-3.634-2.898-7.001-5.871-10.238-8.855-1.559-1.499-3.101-2.925-4.584-4.461l-2.212-2.236-2.097-2.239c-5.517-5.922-10.139-11.749-13.87-17.166-3.715-5.432-6.515-10.473-8.392-14.823-1.911-4.333-2.89-7.974-3.202-10.501-.226-1.252-.209-2.236-.222-2.893l-.021-.993h.5l.116.962c.076.633.149 1.571.489 2.763.242 1.205.758 2.643 1.34 4.325l1.125 2.65c.44.927.947 1.895 1.459 2.923 2.179 4.061 5.235 8.778 9.17 13.865 3.937 5.088 8.77 10.525 14.382 16.107l2.132 2.107 2.221 2.078c1.462 1.407 3.091 2.8 4.698 4.232 3.181 2.779 6.582 5.629 10.194 8.353 7.187 5.519 15.131 10.857 23.668 15.818a200.938 200.938 0 0 0 27.314 13.383 171.84 171.84 0 0 0 14.796 5.118l1.883.581 1.896.49 3.798.979c2.499.71 5.171 1.156 7.769 1.717 5.127 1.088 10.402 1.83 15.624 2.456a222.727 222.727 0 0 0 15.682 1.273c10.421.484 20.702.242 30.61-.606 9.909-.841 19.425-2.332 28.346-4.226 2.233-.473 4.416-.988 6.565-1.508l3.211-.824 3.119-.868c4.14-1.14 8.078-2.446 11.84-3.75 7.502-2.673 14.187-5.655 19.897-8.695 5.711-3.04 10.433-6.162 14.07-9.044 3.631-2.886 6.224-5.484 7.813-7.372.838-.911 1.363-1.732 1.773-2.227l.595-.778.403.301zM451.583 326.379s-2.698 1.26-7.583 3.005c-2.445.87-5.438 1.864-8.915 2.859-3.478.991-7.43 2.031-11.792 2.942-4.352.969-9.125 1.743-14.192 2.445-2.542.273-5.15.64-7.834.791l-4.066.292-4.154.147c-5.599.203-11.36.077-17.272-.439-1.455-.155-2.888-.24-4.376-.454-1.484-.217-2.985-.407-4.47-.652l-4.425-.837-4.396-1.031c-5.841-1.479-11.552-3.472-17.013-5.822a101.358 101.358 0 0 1-15.388-8.236c-4.732-3.125-9.053-6.53-12.841-10.086l-2.764-2.668-2.588-2.679-2.382-2.701c-.749-.912-1.496-1.794-2.201-2.68a75.197 75.197 0 0 1-6.872-10.273c-1.776-3.231-3.026-6.215-3.808-8.753-.775-2.54-1.143-4.607-1.192-6.036-.083-.703.003-1.261-.008-1.623l.016-.553h.5l.08.531c.075.348.081.866.281 1.524.283 1.325.936 3.219 1.996 5.511 1.078 2.287 2.6 4.971 4.623 7.864 2.008 2.903 4.51 6.012 7.435 9.221l2.282 2.415 2.455 2.422 2.597 2.443 2.763 2.423c3.801 3.2 7.971 6.377 12.496 9.353 4.507 2.998 9.35 5.828 14.471 8.326 5.12 2.5 10.549 4.581 16.114 6.221l4.203 1.128 4.242.942c1.412.279 2.822.502 4.229.757 1.405.25 2.889.388 4.321.587a137.3 137.3 0 0 0 16.854.96l4.085-.015 4.007-.161c2.647-.068 5.224-.347 7.744-.504 5.021-.49 9.769-1.063 14.111-1.846 4.353-.727 8.308-1.598 11.797-2.44 3.486-.853 6.499-1.71 8.969-2.452 4.939-1.506 7.664-2.625 7.664-2.625l.197.457zM422.401 212.224s-1.758 1.257-5.098 2.941c-1.661.868-3.743 1.783-6.165 2.761-2.442.915-5.215 1.935-8.327 2.761-1.542.472-3.186.804-4.873 1.226-1.704.331-3.462.724-5.291.992-1.827.28-3.708.563-5.646.708-1.933.22-3.916.302-5.936.388-4.039.18-8.226.072-12.459-.312-2.057-.15-4.259-.438-6.386-.744-1.063-.177-2.135-.326-3.198-.528l-3.188-.635c-4.245-.905-8.425-2.129-12.471-3.559-4.046-1.431-7.928-3.159-11.518-5.152-3.577-2.014-6.878-4.253-9.784-6.659-.728-.599-1.426-1.216-2.123-1.808l-1.993-1.831-1.833-1.87-1.692-1.872a46.183 46.183 0 0 1-5.233-7.323c-1.327-2.34-2.244-4.52-2.764-6.39-.527-1.869-.706-3.392-.712-4.427-.022-.515.041-.916.046-1.178l.026-.399h.5l.07.379c.058.249.087.618.228 1.086.242.94.708 2.283 1.513 3.887.809 1.601 1.982 3.453 3.527 5.422 1.534 1.978 3.457 4.058 5.692 6.18l1.745 1.589 1.876 1.576 1.977 1.586 2.098 1.558a104.646 104.646 0 0 0 9.388 5.952 107.835 107.835 0 0 0 10.67 5.329c3.745 1.613 7.687 2.949 11.703 4.033l3.031.744c1.012.239 2.035.427 3.051.643 1.019.229 2.028.358 3.04.541.998.184 2.04.318 3.081.448 4.077.553 8.132.837 12.055.835 1.963.003 3.896.01 5.783-.122 1.892-.061 3.732-.253 5.529-.416 1.797-.16 3.529-.447 5.214-.676 1.667-.319 3.298-.552 4.829-.929 3.094-.637 5.866-1.483 8.319-2.247 2.429-.832 4.535-1.609 6.228-2.349 3.409-1.447 5.2-2.559 5.2-2.559l.271.42z"/><path fill="#FFF" d="m409.314 445.16-.682 13.062 12.923 7.225-13.614 1.211-1.133 14.923-8.232-12.544-13.068 2.298 8.575-10.713-4.339-9.503 9.804 3.332zM228.34 613.712l-.833 15.962 15.792 8.829-16.635 1.479-1.386 18.236-10.059-15.327-15.968 2.808 10.478-13.092-5.302-11.611 11.979 4.07z"/><path fill="#FFD54F" d="m452.642 591.775-2.724 14.857 11.473 4.515-11.895.639.958 16.236-6.679-14.784-9.882 3.848 7.136-8.989-8.698-8.822 12.037 5.052zM391.553 355.079l.87 13.449 11.473 4.517-11.895.637.021 8.582-5.742-7.128-9.882 3.847 7.137-8.989-8.699-8.822 12.038 5.052zM380.14 285.637l-10.055-2.278-3.405 7.697-.099-8.132-11.102.195 10.272-4.138-2.345-6.849 5.93 5.122 6.264-5.684-3.787 8.067zM256.401 456.87l-10.055-2.277-3.405 7.698-.1-8.131-11.101.194 10.273-4.138-2.346-6.85 5.931 5.123 6.262-5.684-3.786 8.068zM311.397 687.691l-10.055-2.278-3.405 7.697-.1-8.131-11.102.195 10.273-4.138-2.345-6.85 5.93 5.122 6.263-5.683-3.786 8.066z"/><path fill="#FFF" d="m305.277 324.639 5.947 11.65 14.804-.209-11.183 7.858 3.017 10.676-9.934-3.929-10.166 8.53 2.065-13.569-8.511-6.056 10.154-2.02zM332.466 584.976l5.946 11.65 14.804-.208-11.182 7.858 3.016 10.676-9.934-3.93-10.164 8.53 2.063-13.568-8.51-6.057 10.153-2.019zM467.455 662.836l5.944 11.65 14.805-.209-11.183 7.859 3.017 10.676-9.934-3.93-10.165 8.529 2.063-13.568-8.51-6.056 10.154-2.019zM331.706 414.591l-1.811 7.718 6.929 5.702-8.252-.741-2.784 6.118-3.059-5.708-8.042-.035 6.268-5.469-1.566-6.136 5.491 3.042zM371.702 687.066l-1.812 7.718 6.93 5.702-8.251-.742-2.785 6.119-3.059-5.707-8.042-.036 6.267-5.469-1.564-6.135 5.489 3.043zM362.953 175.862l-1.812 7.718 6.931 5.702-8.252-.741-2.785 6.119-3.059-5.708-8.042-.036 6.268-5.469-1.565-6.136 5.489 3.043zM284.41 213.375l7.678 8.314 12.284-3.637-7.476 9.164 5.009 8.186-9.195-.946-6.473 9.48-1.454-11.784-8.507-3.055 7.987-4.059zM413.616 285.368l3.427 10.785 12.666 1.918-10.656 5.127 1.063 9.539-7.927-4.758-9.882 5.839 3.682-11.288-6.406-6.375 8.954-.288zM272.152 527.978c-11.361-5.873-15.81-19.845-9.937-31.206a23.042 23.042 0 0 1 10.852-10.378c-9.187-.21-19.484 4.86-23.988 13.572-6.297 12.181-3.396 26.354 7.878 34.159 9.311 6.447 26.501 4.041 32.126-4.437a23.068 23.068 0 0 1-16.931-1.71z"/><g fill="#37474F"><path d="M728.188 700.593s-.11-.107-.314-.352a5.048 5.048 0 0 1-.648-1.34c-.415-1.195-.665-2.996-.717-5.261-.063-2.27.093-5.009.457-8.123.385-3.109.96-6.6 1.841-10.352.441-1.876.939-3.822 1.508-5.824a123.196 123.196 0 0 1 1.995-6.137c1.475-4.186 3.349-8.516 5.821-12.792 1.255-2.125 2.675-4.237 4.361-6.238 1.691-1.994 3.664-3.902 6.149-5.383 1.243-.731 2.648-1.322 4.167-1.634a11.062 11.062 0 0 1 4.664.027c1.526.34 2.919.994 4.148 1.783l.893.622c.285.218.553.449.829.674.281.221.535.462.784.705.267.262.469.436.788.772.851.943 1.705 1.849 2.551 2.822.815 1.075 1.717 2.088 2.439 3.214l1.085 1.683c.377.545.633 1.192.952 1.783.659 1.17 1.063 2.506 1.495 3.794.736 2.657.742 5.581-.048 8.193-.777 2.625-2.229 4.871-3.841 6.783-3.317 3.771-7.174 6.474-10.854 8.852-3.696 2.372-7.274 4.404-10.535 6.329-3.263 1.92-6.225 3.71-8.75 5.436-2.528 1.721-4.621 3.366-6.265 4.813-1.604 1.485-2.759 2.762-3.477 3.685l-1.245 1.69-.233-.224zm.212-.627.783-1.196c.683-.986 1.792-2.358 3.35-3.968 1.589-1.574 3.64-3.36 6.125-5.222 2.478-1.872 5.382-3.82 8.561-5.899 3.176-2.083 6.646-4.28 10.152-6.772 3.481-2.498 7.12-5.25 9.943-8.742 1.37-1.754 2.494-3.698 3.023-5.781.535-2.079.46-4.271-.206-6.396-.412-1.044-.753-2.114-1.372-3.109-.298-.499-.514-1.029-.875-1.504l-1.016-1.451c-.671-.973-1.498-1.816-2.23-2.734-.843-.901-1.759-1.804-2.635-2.706-.758-.682-1.682-1.478-2.586-1.986-.919-.533-1.866-.912-2.809-1.077-1.881-.349-3.771.206-5.52 1.363-1.747 1.16-3.299 2.807-4.697 4.574a49.023 49.023 0 0 0-3.763 5.678c-2.284 3.928-4.146 7.998-5.808 11.91a118.016 118.016 0 0 0-2.247 5.789 129.35 129.35 0 0 0-1.913 5.499c-1.143 3.557-2.096 6.854-2.82 9.806-.728 2.949-1.246 5.55-1.542 7.698-.297 2.147-.363 3.852-.22 4.963.055.571.196.953.278 1.191.016.024.03.046.044.072z"/><path d="M726.57 697.45c.005-.028.013-.053.019-.084.008-.251.03-.659-.086-1.221-.193-1.106-.761-2.718-1.68-4.685-.919-1.968-2.183-4.305-3.75-6.913-1.563-2.612-3.449-5.488-5.591-8.557a130.5 130.5 0 0 0-3.451-4.702 121.124 121.124 0 0 0-3.855-4.882c-2.742-3.258-5.722-6.609-9.063-9.704a49.576 49.576 0 0 0-5.269-4.343c-1.856-1.289-3.825-2.416-5.839-3.032-2.015-.603-3.994-.604-5.694.267-.855.427-1.652 1.062-2.377 1.837-.716.75-1.37 1.779-1.894 2.654-.573 1.121-1.188 2.255-1.727 3.365l-.688 1.625c-.229.542-.48 1.076-.638 1.648l-.545 1.688c-.196.562-.252 1.132-.389 1.697-.121.566-.257 1.133-.268 1.694-.032.561-.118 1.129-.113 1.684a11.5 11.5 0 0 0 1.719 6.177c1.134 1.834 2.788 3.362 4.619 4.638 3.73 2.518 8.022 4.091 12.085 5.475 4.086 1.37 8.051 2.467 11.7 3.542 3.652 1.071 7.001 2.094 9.92 3.168 2.924 1.063 5.408 2.18 7.39 3.224 1.962 1.089 3.424 2.08 4.367 2.825.492.41.861.716 1.098.915zm-.013.64-1.444-1.073c-.958-.675-2.438-1.561-4.407-2.517-1.998-.907-4.481-1.877-7.405-2.792-2.922-.921-6.282-1.777-9.968-2.67-3.685-.898-7.705-1.807-11.937-3.006-4.219-1.211-8.702-2.674-12.982-5.31-2.104-1.354-4.156-3.069-5.684-5.342-1.533-2.255-2.425-5.053-2.5-7.815-.03-.688.036-1.367.055-2.055-.001-.695.125-1.356.24-2.023.129-.66.189-1.353.381-1.99l.543-1.931c.16-.652.417-1.276.658-1.906l.73-1.892c.523-1.184 1.077-2.3 1.614-3.453.208-.417.35-.642.529-.972a9.84 9.84 0 0 1 .545-.906c.374-.602.81-1.18 1.274-1.746.95-1.116 2.102-2.147 3.471-2.911a11.021 11.021 0 0 1 4.473-1.355c1.546-.134 3.058.037 4.462.374 2.803.708 5.246 1.96 7.444 3.379 2.198 1.424 4.173 3.033 5.998 4.699 3.62 3.37 6.685 6.965 9.328 10.539a123.696 123.696 0 0 1 3.716 5.288 133.684 133.684 0 0 1 3.159 5.131 98.475 98.475 0 0 1 4.816 9.365c1.268 2.873 2.226 5.448 2.837 7.638.62 2.184.914 3.98.873 5.246a5.054 5.054 0 0 1-.223 1.474l-.354.712-.242-.18z"/></g><path fill="#26A69A" d="M816.207 895.014a1467.995 1467.995 0 0 1-180.513.446c4.023-68.091 8.045-136.183 12.07-204.273a1264.009 1264.009 0 0 0 155.358-.387l13.085 204.214z"/><path fill="#37474F" d="M728.046 689.49s.196 3.322.381 9.132c.098 2.905.184 6.431.261 10.476.063 4.044.136 8.607.144 13.582l.016 7.761-.064 8.303c-.028 5.7-.159 11.708-.335 17.921-.202 6.213-.49 12.631-.819 19.151l-.917 19.77-1.683 38.923-.789 17.908-.757 16.043-1.604 33.121-.5-.015.323-33.158.177-16.061.252-17.924.582-38.955.233-19.79c.051-6.528.136-12.952.295-19.166.186-6.213.404-12.219.707-17.91l.418-8.293.466-7.747c.297-4.966.635-9.517.933-13.551.311-4.033.602-7.549.869-10.443.523-5.789.911-9.094.911-9.094l.5.016z"/><g fill="#37474F"><path d="M227.594 714.6c.028.034-.526-.419-.866-1.444-.367-1.016-.607-2.546-.676-4.47-.075-1.927.026-4.254.316-6.897.303-2.64.771-5.603 1.506-8.786.367-1.592.784-3.243 1.26-4.943.5-1.692 1.061-3.431 1.69-5.207 1.25-3.553 2.852-7.227 4.986-10.854 1.094-1.797 2.306-3.596 3.782-5.287 1.471-1.689 3.187-3.312 5.377-4.549 1.092-.611 2.321-1.112 3.655-1.356a9.805 9.805 0 0 1 4.075.089c2.685.646 4.734 2.245 6.381 3.951l1.105 1.175c.375.428.766.85 1.124 1.284.716.865 1.417 1.747 2.052 2.692 1.284 1.868 2.385 3.943 3.002 6.24.632 2.285.62 4.828-.096 7.075-.697 2.263-1.985 4.164-3.392 5.762-2.864 3.182-6.16 5.432-9.294 7.415-3.15 1.971-6.189 3.663-8.959 5.263-2.772 1.596-5.284 3.088-7.431 4.521-2.151 1.428-3.936 2.793-5.323 4.01-1.382 1.223-2.354 2.302-2.97 3.072-.312.382-.533.689-.678.899l-.225.315-.401.03zm.205-.658c.135-.225.335-.545.62-.945.582-.833 1.509-2.009 2.844-3.355 1.334-1.346 3.079-2.851 5.186-4.419 2.1-1.579 4.555-3.23 7.244-4.985 2.685-1.759 5.617-3.615 8.581-5.71 2.936-2.105 6.02-4.408 8.39-7.32 1.17-1.45 2.127-3.061 2.566-4.776.451-1.709.388-3.502-.172-5.25-.553-1.749-1.524-3.443-2.721-5.024-.586-.797-1.249-1.559-1.926-2.309-.337-.374-.69-.72-1.032-1.082l-1.14-1.11c-1.359-1.285-2.935-2.283-4.447-2.536-1.507-.281-3.004.135-4.437 1.071-1.433.919-2.724 2.283-3.894 3.743a40.86 40.86 0 0 0-3.168 4.722c-1.94 3.274-3.528 6.685-4.961 9.961a98.43 98.43 0 0 0-1.939 4.854 107.861 107.861 0 0 0-1.663 4.614c-.996 2.986-1.843 5.754-2.483 8.234-.654 2.477-1.117 4.662-1.402 6.467-.281 1.805-.358 3.235-.262 4.17.042.45.131.775.216.985z"/><path d="M226.207 711.829a3.583 3.583 0 0 0-.087-1.007c-.188-.925-.691-2.271-1.5-3.916-.813-1.644-1.909-3.599-3.273-5.778-1.353-2.186-2.988-4.586-4.829-7.153a109.287 109.287 0 0 0-2.964-3.929 100.259 100.259 0 0 0-3.298-4.079c-2.345-2.717-4.876-5.521-7.701-8.094a42.196 42.196 0 0 0-4.429-3.612c-1.552-1.065-3.19-2.007-4.839-2.49-1.653-.495-3.223-.485-4.585.204-1.377.66-2.596 2.073-3.518 3.7l-.765 1.4c-.221.448-.457.882-.669 1.341-.427.918-.836 1.844-1.157 2.781-.672 1.868-1.092 3.779-1.082 5.615a9.241 9.241 0 0 0 1.453 5.069c.953 1.505 2.35 2.769 3.908 3.811 3.14 2.093 6.77 3.41 10.202 4.579 3.455 1.154 6.809 2.089 9.896 3.004 3.09.91 5.925 1.786 8.398 2.697 2.478.898 4.588 1.838 6.261 2.742 1.672.905 2.905 1.762 3.707 2.391.39.3.675.549.871.724zm-.003.661-.308-.236a14.316 14.316 0 0 0-.915-.664c-.817-.558-2.065-1.311-3.747-2.084-1.686-.766-3.796-1.56-6.275-2.311-2.477-.757-5.321-1.465-8.445-2.199-3.124-.739-6.531-1.486-10.127-2.466-3.585-.995-7.399-2.201-11.079-4.399-1.82-1.109-3.61-2.545-4.969-4.483-1.366-1.919-2.181-4.342-2.265-6.723-.117-2.388.315-4.712.987-6.887.326-1.098.736-2.151 1.167-3.193.214-.522.466-1.043.699-1.565l.713-1.454c.551-1.089 1.178-2.119 2-3.1.81-.974 1.812-1.879 3.007-2.552a9.774 9.774 0 0 1 3.906-1.22c1.35-.132 2.67 0 3.888.281 2.447.571 4.556 1.631 6.455 2.823 1.904 1.192 3.591 2.562 5.166 3.963 3.11 2.85 5.728 5.896 7.979 8.931a105.566 105.566 0 0 1 3.162 4.488 110.739 110.739 0 0 1 2.676 4.361 80.3 80.3 0 0 1 4.059 7.967c1.066 2.444 1.858 4.642 2.363 6.509.511 1.863.74 3.398.695 4.481-.016 1.082-.414 1.684-.396 1.642l-.396.09z"/></g><path fill="#FFB74D" d="M296.163 866.107a1145.837 1145.837 0 0 1-140.902.349c3.141-53.149 6.28-106.299 9.422-159.448a986.836 986.836 0 0 0 121.267-.302l10.213 159.401z"/><path fill="#37474F" d="M292.227 761.801s-2.091.204-5.744.402c-1.827.105-4.044.199-6.586.285-2.542.072-5.409.156-8.533.175l-4.875.033-5.213-.045c-3.579-.015-7.349-.132-11.247-.293a428.892 428.892 0 0 1-12.008-.774l-12.394-.871-24.403-1.591-11.228-.747-10.058-.719-20.762-1.526.021-.5 20.816.246 10.082.139 11.251.21 24.451.491 12.423.187c4.099.036 8.131.105 12.03.25 3.897.171 7.664.375 11.231.665l5.198.399 4.854.448c3.112.285 5.962.612 8.488.901 2.525.302 4.726.584 6.538.844 3.623.509 5.689.889 5.689.889l-.021.502z"/><path fill="#37474F" d="M227.532 705.221s.267 2.603.576 7.156c.16 2.277.322 5.041.484 8.212.149 3.17.319 6.748.433 10.649l.181 6.086.113 6.512c.093 4.47.09 9.183.047 14.058a659.054 659.054 0 0 1-.411 15.029l-.496 15.515-.853 30.544-.408 14.054-.415 12.591-.897 25.993-.5-.005-.383-26.006-.166-12.596-.129-14.059-.249-30.555-.189-15.522a665.73 665.73 0 0 1-.113-15.034c.054-4.875.144-9.587.325-14.054l.242-6.509.301-6.081c.191-3.898.432-7.471.643-10.638.226-3.167.441-5.927.646-8.2.399-4.546.717-7.144.717-7.144l.501.004z"/><g fill="#FFE082"><path d="M307.687 761.274c.026.033-.464-.371-.771-1.26-.332-.884-.561-2.211-.648-3.882-.093-1.673-.037-3.693.177-5.99a68 68 0 0 1 1.189-7.638 96.73 96.73 0 0 1 1.028-4.302 91.966 91.966 0 0 1 1.403-4.535c1.037-3.099 2.384-6.304 4.193-9.485.929-1.575 1.957-3.159 3.222-4.655 1.255-1.499 2.728-2.945 4.626-4.094.953-.564 2.028-1.043 3.217-1.301a8.597 8.597 0 0 1 3.676-.015c1.207.259 2.293.778 3.234 1.392.951.629 1.723 1.32 2.484 2.117l.938 1.022.971 1.133a31.212 31.212 0 0 1 1.764 2.364c1.106 1.638 2.054 3.455 2.605 5.463.542 2.005.583 4.226-.005 6.221-.574 2.005-1.673 3.695-2.871 5.122-2.457 2.829-5.301 4.809-8.004 6.551-2.718 1.728-5.339 3.206-7.726 4.602-2.39 1.392-4.552 2.692-6.4 3.939-1.851 1.243-3.384 2.43-4.575 3.486-1.187 1.061-2.02 1.998-2.548 2.664-.268.332-.457.597-.582.779l-.193.273-.404.029zm.221-.69c.113-.19.264-.442.474-.745.493-.729 1.279-1.761 2.418-2.946 1.138-1.185 2.629-2.512 4.434-3.895 1.799-1.393 3.904-2.852 6.208-4.402 2.301-1.554 4.812-3.195 7.339-5.043 2.499-1.858 5.125-3.887 7.083-6.424.958-1.266 1.732-2.652 2.063-4.109.34-1.455.237-2.963-.238-4.447-.49-1.483-1.317-2.926-2.341-4.282-.502-.683-1.067-1.338-1.645-1.984l-.878-.927-.986-.97c-1.128-1.063-2.467-1.884-3.665-2.043-1.196-.188-2.379.203-3.554 1.025-1.169.819-2.235 2.008-3.204 3.281a37.35 37.35 0 0 0-2.638 4.1c-1.627 2.836-2.967 5.786-4.194 8.614a87.051 87.051 0 0 0-1.657 4.191 94.753 94.753 0 0 0-1.436 3.98c-.862 2.575-1.603 4.962-2.17 7.099-.578 2.135-.997 4.017-1.263 5.571-.263 1.554-.35 2.785-.288 3.59.024.343.083.589.138.766z"/><path d="M306.487 758.753a3.366 3.366 0 0 0-.091-.774c-.175-.789-.618-1.939-1.324-3.349-.709-1.409-1.659-3.087-2.835-4.959-1.167-1.878-2.573-3.944-4.149-6.156a93.4 93.4 0 0 0-2.536-3.387 86.183 86.183 0 0 0-2.809-3.524c-1.999-2.346-4.143-4.776-6.527-7.013a37.158 37.158 0 0 0-3.721-3.151c-1.298-.935-2.666-1.76-4.023-2.202-1.364-.443-2.609-.471-3.699.058-1.1.503-2.14 1.679-2.908 3.025l-.661 1.216-.569 1.143a27.915 27.915 0 0 0-.994 2.378c-.583 1.596-.953 3.218-.988 4.779-.021 1.557.321 3.03 1.071 4.322.742 1.297 1.888 2.396 3.174 3.327 2.613 1.855 5.717 3.029 8.65 4.075 2.958 1.03 5.837 1.866 8.492 2.679 2.657.81 5.096 1.59 7.223 2.397 2.131.796 3.945 1.629 5.379 2.43 1.435.801 2.489 1.558 3.173 2.111.29.23.509.427.672.575zm.018.686-.264-.205c-.172-.137-.43-.336-.783-.575-.7-.483-1.77-1.135-3.215-1.804-1.448-.662-3.262-1.349-5.395-1.998-2.131-.654-4.58-1.265-7.271-1.898-2.691-.638-5.629-1.286-8.734-2.145-3.094-.877-6.393-1.939-9.568-3.927-1.563-1.015-3.107-2.31-4.242-4.06-1.146-1.737-1.755-3.873-1.821-5.949-.061-2.082.315-4.095.895-5.986.282-.952.631-1.869.996-2.776l.598-1.367.599-1.251c.495-.985 1.032-1.872 1.758-2.751.72-.862 1.608-1.675 2.686-2.275a8.606 8.606 0 0 1 3.521-1.059c1.212-.101 2.38.043 3.456.305 2.152.544 3.982 1.498 5.621 2.564 1.647 1.062 3.092 2.276 4.441 3.512 2.659 2.513 4.883 5.185 6.781 7.846a91.837 91.837 0 0 1 2.666 3.928 97.155 97.155 0 0 1 2.24 3.814 68.162 68.162 0 0 1 3.368 6.957c.875 2.134 1.519 4.05 1.919 5.677.405 1.624.574 2.96.514 3.902-.033.94-.384 1.47-.368 1.431l-.398.09z"/></g><path fill="#5C6CAD" d="m360.726 888.257-108.129.837-3.382-134.647 112.478-1.357z"/><path fill="#FFE082" d="M362.845 802.439s-1.786.215-4.905.434c-1.56.115-3.452.221-5.621.321-2.169.086-4.617.185-7.283.221l-4.16.06-4.448-.016c-3.054.004-6.27-.092-9.595-.232a311.872 311.872 0 0 1-10.24-.708l-10.57-.803-20.812-1.458-9.575-.686-8.577-.664c-10.625-.805-17.705-1.412-17.705-1.412l.021-.5s7.106.01 17.761.133l8.602.084 9.599.149 20.86.357 10.599.119c3.498.013 6.938.061 10.264.185 3.324.15 6.537.333 9.579.603l4.432.371 4.139.421c2.653.268 5.083.58 7.236.854 2.152.288 4.028.558 5.572.809 3.088.489 4.848.858 4.848.858l-.021.5z"/><path fill="#FFE082" d="M307.7 753.079s.271 2.27.586 6.24c.164 1.985.329 4.396.496 7.16.154 2.765.329 5.883.448 9.285l.19 5.306.122 5.677c.1 3.897.104 8.007.068 12.257-.063 4.25-.207 8.641-.389 13.102l-.473 13.527-.809 26.63-.387 12.252-.397 10.977-.859 22.662-.5-.005-.421-22.674-.184-10.983-.15-12.258-.293-26.64-.211-13.533a503.246 503.246 0 0 1-.135-13.107c.046-4.25.129-8.358.304-12.253l.232-5.674c.102-1.832.199-3.602.292-5.302.185-3.399.421-6.514.628-9.274.221-2.761.433-5.167.634-7.149.393-3.963.707-6.228.707-6.228l.501.005z"/><g fill="#37474F"><path d="M798.384 758.862c.027.034-.524-.43-.863-1.467-.366-1.029-.607-2.577-.679-4.526-.078-1.951.02-4.308.301-6.986a82.127 82.127 0 0 1 1.479-8.908c.361-1.615.771-3.291 1.241-5.016a107.488 107.488 0 0 1 1.666-5.287c1.233-3.61 2.812-7.345 4.916-11.044 1.078-1.834 2.27-3.673 3.727-5.41 1.447-1.737 3.138-3.411 5.301-4.73 1.085-.648 2.304-1.195 3.646-1.49a9.697 9.697 0 0 1 4.147-.028c1.362.289 2.597.873 3.672 1.57 1.086.713 1.981 1.508 2.854 2.417l1.104 1.193 1.13 1.311c.717.882 1.419 1.781 2.058 2.739 1.29 1.897 2.391 3.994 3.031 6.303.63 2.305.684 4.847.016 7.14-.652 2.303-1.913 4.258-3.296 5.918-2.837 3.292-6.152 5.617-9.304 7.669-3.17 2.036-6.233 3.783-9.025 5.433-2.793 1.645-5.324 3.183-7.486 4.658-2.166 1.469-3.96 2.873-5.352 4.122-1.387 1.255-2.359 2.361-2.976 3.147a14.08 14.08 0 0 0-.678.919l-.225.322-.405.031zm.207-.665c.135-.229.333-.554.616-.96.581-.85 1.507-2.051 2.847-3.43 1.338-1.378 3.09-2.922 5.21-4.531 2.113-1.621 4.585-3.317 7.294-5.121 2.705-1.808 5.657-3.718 8.637-5.874 2.948-2.168 6.045-4.543 8.383-7.542 1.144-1.498 2.08-3.149 2.489-4.905.42-1.752.305-3.582-.258-5.366-.58-1.784-1.56-3.508-2.768-5.122-.593-.813-1.258-1.591-1.938-2.359l-1.038-1.105-1.152-1.142c-1.351-1.286-2.961-2.301-4.473-2.522-1.511-.252-3.019.235-4.455 1.227-1.433.989-2.718 2.404-3.879 3.917a43.272 43.272 0 0 0-3.144 4.855c-1.922 3.354-3.494 6.835-4.917 10.173a102.925 102.925 0 0 0-1.92 4.943 109.083 109.083 0 0 0-1.647 4.694c-.988 3.036-1.825 5.85-2.46 8.369-.646 2.516-1.106 4.735-1.388 6.567-.278 1.832-.353 3.283-.256 4.234.044.455.133.785.217 1z"/><path d="M796.998 756.039a3.756 3.756 0 0 0-.085-1.018c-.185-.938-.681-2.303-1.482-3.974-.804-1.67-1.892-3.658-3.245-5.876-1.344-2.223-2.965-4.67-4.797-7.285a110.045 110.045 0 0 0-2.947-4.008 102.26 102.26 0 0 0-3.281-4.166c-2.335-2.777-4.855-5.647-7.673-8.293a43.085 43.085 0 0 0-4.424-3.725c-1.552-1.108-3.195-2.086-4.854-2.614-1.664-.529-3.248-.555-4.619.128-1.381.653-2.625 2.094-3.542 3.718l-.769 1.429-.669 1.359c-.426.933-.835 1.872-1.165 2.822-.684 1.896-1.117 3.832-1.151 5.707-.017 1.87.407 3.654 1.321 5.207.904 1.56 2.282 2.865 3.813 3.964 3.112 2.186 6.768 3.552 10.22 4.765 3.479 1.192 6.861 2.156 9.977 3.095 3.117.934 5.978 1.834 8.472 2.767 2.499.92 4.625 1.885 6.307 2.812 1.683.927 2.92 1.806 3.724 2.449.388.304.673.557.869.737zm-.004.666-.309-.242a14.203 14.203 0 0 0-.917-.681c-.819-.573-2.072-1.346-3.765-2.141-1.696-.789-3.823-1.606-6.323-2.379-2.498-.78-5.367-1.511-8.52-2.268-3.152-.763-6.592-1.539-10.218-2.56-3.614-1.043-7.464-2.298-11.139-4.617-1.808-1.183-3.585-2.684-4.881-4.697-1.309-1.998-2-4.445-2.071-6.833-.063-2.396.378-4.723 1.058-6.914.331-1.103.74-2.167 1.168-3.22l.698-1.583.707-1.464c.57-1.125 1.194-2.146 2.024-3.146.825-.981 1.835-1.9 3.054-2.574a9.695 9.695 0 0 1 3.974-1.185c1.37-.11 2.696.057 3.922.36 2.454.629 4.561 1.736 6.452 2.975 1.9 1.235 3.578 2.646 5.145 4.086 3.093 2.923 5.694 6.034 7.927 9.127a107.021 107.021 0 0 1 3.138 4.57 112.95 112.95 0 0 1 2.651 4.435 81.88 81.88 0 0 1 4.016 8.087c1.052 2.479 1.833 4.704 2.328 6.593.5 1.885.722 3.435.672 4.527-.02 1.091-.413 1.696-.396 1.655l-.395.089z"/></g><path fill="#FFD54F" d="M727.906 914.953a1157.782 1157.782 0 0 0 142.307.033l-9.878-161.018a996.634 996.634 0 0 1-122.479-.027c-3.315 53.67-6.632 107.342-9.95 161.012z"/><path fill="#37474F" d="M863.017 807.106s-2.091.201-5.745.397c-1.827.104-4.044.196-6.586.279-2.542.07-5.409.151-8.534.167l-4.875.029-5.213-.05c-3.579-.018-7.35-.139-11.247-.303-3.897-.191-7.921-.469-12.007-.785l-12.394-.882-24.403-1.614-11.227-.758-10.058-.729-20.761-1.545.021-.5 20.817.266 10.082.148 11.251.221 24.451.513 12.423.199c4.099.04 8.131.113 12.03.261 3.897.175 7.664.383 11.231.676l5.197.404 4.854.452c3.112.288 5.961.618 8.487.909 2.525.304 4.726.588 6.537.85 3.622.512 5.688.895 5.688.895l-.019.5z"/><path fill="#37474F" d="M798.323 749.28s.267 2.66.576 7.314c.16 2.327.321 5.153.484 8.393.149 3.24.319 6.896.433 10.884l.181 6.22.113 6.656c.093 4.569.09 9.386.047 14.369-.07 4.982-.221 10.13-.411 15.361l-.495 15.859-.853 31.22-.407 14.365-.415 12.869-.897 26.569-.5-.005-.383-26.581-.166-12.875-.13-14.37-.249-31.231-.188-15.865a701.784 701.784 0 0 1-.114-15.366c.054-4.983.144-9.799.325-14.365l.242-6.653.301-6.216c.191-3.985.432-7.637.644-10.874.225-3.237.44-6.059.646-8.382.399-4.647.717-7.302.717-7.302l.499.006z"/><path fill="#80CBC4" d="M447.289 557.236a887.546 887.546 0 0 0 105.535 27.592c7.957-40.443 15.911-80.888 23.866-121.332a763.762 763.762 0 0 1-90.828-23.747c-12.859 39.163-25.716 78.325-38.573 117.487z"/><path fill="#E8EAF6" d="M572.158 491.519s-1.603-.155-4.365-.578a167.68 167.68 0 0 1-4.961-.833c-1.906-.358-4.056-.76-6.382-1.268l-3.629-.789-3.861-.921c-2.655-.618-5.427-1.366-8.284-2.178a249.25 249.25 0 0 1-8.731-2.773l-8.994-2.932-17.74-5.653-8.158-2.616-7.295-2.391a1564.852 1564.852 0 0 1-15.051-4.977l.138-.48s6.173 1.457 15.403 3.745l7.456 1.833 8.306 2.099 18.043 4.594 9.183 2.274c3.036.725 6.015 1.472 8.876 2.269 2.853.823 5.601 1.655 8.181 2.536l3.764 1.262 3.497 1.252c2.242.801 4.279 1.598 6.085 2.303a165.75 165.75 0 0 1 4.65 1.92c2.567 1.104 4.009 1.821 4.009 1.821l-.14.481z"/><path fill="#E8EAF6" d="M531.437 451.17s-.176 1.81-.637 4.938c-.225 1.565-.53 3.458-.901 5.622-.385 2.162-.817 4.601-1.358 7.243l-.84 4.123-.978 4.391c-.656 3.018-1.446 6.175-2.3 9.431a318.443 318.443 0 0 1-2.906 9.967l-3.069 10.272-5.923 20.253-2.74 9.315-2.502 8.333c-3.083 10.327-5.207 17.193-5.207 17.193l-.483-.128s1.546-7.019 3.969-17.52l1.941-8.481 2.221-9.452 4.858-20.535 2.408-10.447a318.11 318.11 0 0 1 2.399-10.101c.865-3.253 1.739-6.388 2.66-9.336l1.32-4.301 1.307-4c.835-2.565 1.665-4.899 2.398-6.968a211.698 211.698 0 0 1 1.995-5.334c1.145-2.947 1.886-4.608 1.886-4.608l.482.13z"/><path fill="#9FA8DA" d="m350.436 560.072 90.773-31.475 30.658 88.416-90.774 31.475z"/><g fill="#FFF"><path d="M478.638 530.744s-.068-.047-.205-.169a3.221 3.221 0 0 1-.497-.739c-.34-.655-.627-1.651-.834-2.918-.215-1.269-.333-2.809-.354-4.571a48.804 48.804 0 0 1 .327-5.889 75.58 75.58 0 0 1 .472-3.341 70.31 70.31 0 0 1 .758-3.544 38.507 38.507 0 0 1 2.601-7.508c.62-1.263 1.325-2.543 2.225-3.774.891-1.234 1.969-2.446 3.415-3.472.731-.504 1.573-.952 2.526-1.23a7.057 7.057 0 0 1 2.999-.227c.998.141 1.907.493 2.696.929.799.45 1.427.952 2.089 1.537l.765.72.815.82a24.317 24.317 0 0 1 1.493 1.722c.948 1.203 1.792 2.561 2.343 4.11.544 1.545.717 3.314.354 4.928-.346 1.62-1.119 3-1.972 4.168-1.754 2.318-3.822 3.961-5.783 5.424-1.974 1.45-3.88 2.7-5.612 3.875-3.48 2.32-6.219 4.42-7.895 6.143-.841.856-1.42 1.6-1.785 2.126l-.662 1.072-.279-.192zm.209-.769c.062-.122.129-.266.221-.427a17.21 17.21 0 0 1 1.634-2.398c.781-.976 1.822-2.081 3.097-3.247 1.269-1.174 2.762-2.416 4.398-3.74 1.634-1.325 3.417-2.729 5.191-4.285 1.754-1.558 3.579-3.26 4.842-5.25.616-.991 1.077-2.041 1.212-3.086.136-1.044-.017-2.081-.445-3.108-.438-1.025-1.124-2.023-1.958-2.954-.41-.469-.867-.918-1.333-1.36l-.701-.626-.805-.67c-.416-.304-.912-.643-1.354-.837-.453-.199-.881-.309-1.268-.325-.76-.04-1.462.269-2.221.908-1.504 1.33-2.739 3.558-3.745 5.728-1.042 2.192-1.885 4.464-2.669 6.639a65.632 65.632 0 0 0-1.039 3.22 71.063 71.063 0 0 0-.903 3.052c-.535 1.973-.999 3.798-1.347 5.427-.354 1.628-.609 3.06-.761 4.237-.151 1.177-.186 2.104-.122 2.697.013.17.051.299.076.405z"/><path d="M477.29 530.096c.008-.109.026-.242.013-.411-.029-.596-.206-1.507-.537-2.646a51.551 51.551 0 0 0-1.406-4.068c-.595-1.557-1.335-3.288-2.167-5.155a71.493 71.493 0 0 0-1.363-2.876 64.852 64.852 0 0 0-1.523-3.021c-1.111-2.028-2.294-4.142-3.661-6.147-1.33-1.989-2.894-4-4.584-5.082-.849-.514-1.59-.712-2.335-.555-.38.076-.786.251-1.203.517-.407.26-.845.672-1.209 1.036l-.691.786-.596.727a19.924 19.924 0 0 0-1.107 1.549c-.681 1.049-1.205 2.141-1.479 3.221-.265 1.081-.256 2.129.04 3.14.294 1.012.912 1.978 1.674 2.862 1.555 1.771 3.621 3.171 5.594 4.439 1.994 1.263 3.972 2.375 5.791 3.433 1.82 1.055 3.488 2.052 4.923 3.016 1.439.956 2.639 1.887 3.561 2.73a17.218 17.218 0 0 1 1.984 2.117c.112.145.201.277.281.388zm-.088.739s-.207-.273-.651-.736a16.474 16.474 0 0 0-2.092-1.826c-1.921-1.444-4.952-3.095-8.749-4.851-1.892-.894-3.968-1.835-6.142-2.963-2.164-1.143-4.46-2.447-6.551-4.467-1.022-1.022-2-2.267-2.592-3.814-.606-1.538-.709-3.313-.41-4.923.305-1.616.93-3.088 1.681-4.422.372-.675.785-1.308 1.21-1.932l.678-.936.645-.83c.563-.68 1.106-1.273 1.827-1.841.713-.552 1.557-1.04 2.521-1.334a7.077 7.077 0 0 1 2.999-.238c.984.128 1.885.44 2.685.825 1.587.791 2.839 1.821 3.91 2.904 1.079 1.078 1.972 2.233 2.78 3.386a38.461 38.461 0 0 1 3.729 7.017 70.26 70.26 0 0 1 1.296 3.384c.365 1.11.691 2.188.982 3.229.584 2.08.963 4.03 1.231 5.768.25 1.744.373 3.284.355 4.571-.009 1.283-.139 2.313-.374 3.012a3.178 3.178 0 0 1-.376.806l-.422.432-.17-.221z"/></g><path fill="#E5B735" d="M521.064 648.994h-83.132l-8.845-124.957h100.821z"/><g fill="#FFF"><path d="M529.114 547.947s-1.566.378-4.314.881c-1.374.258-3.044.537-4.961.834-1.918.284-4.082.607-6.446.888l-3.688.441-3.951.391c-2.711.284-5.575.483-8.541.648a247.75 247.75 0 0 1-9.157.233l-9.459.169-18.613.455-8.565.195-7.677.125c-9.508.172-15.85.216-15.85.216l-.027-.499s6.311-.641 15.781-1.495l7.646-.705 8.536-.73 18.554-1.555 9.421-.852c3.106-.307 6.165-.574 9.129-.756 2.966-.155 5.835-.267 8.561-.277l3.97-.037 3.714.04c2.38.024 4.566.112 6.503.188 1.938.089 3.629.187 5.022.294 2.787.204 4.384.41 4.384.41l.028.498z"/><path d="M477.442 523.124s.425 1.769 1.012 4.875c.3 1.553.63 3.441.986 5.609.343 2.168.731 4.615 1.084 7.289l.553 4.171.511 4.47c.367 3.067.653 6.308.909 9.665.229 3.358.387 6.835.512 10.37l.457 10.711 1.022 21.077.455 9.698.358 8.693c.461 10.767.699 17.951.699 17.951l-.499.037s-.833-7.139-1.976-17.855l-.937-8.65-.991-9.659-2.121-20.995-1.139-10.66a316.51 316.51 0 0 1-1.034-10.331c-.246-3.357-.445-6.605-.538-9.693l-.158-4.496-.073-4.207c-.048-2.697-.027-5.174-.01-7.369.03-2.196.076-4.112.142-5.693.119-3.159.277-4.971.277-4.971l.499-.037z"/></g><path fill="#37474F" d="M432.158 592.561c.014.061-.316-.522-.164-1.386.117-.871.537-2.034 1.234-3.394.691-1.367 1.672-2.925 2.903-4.628 1.25-1.686 2.728-3.54 4.504-5.41a63.094 63.094 0 0 1 6.084-5.72c2.292-1.903 4.883-3.74 7.846-5.295 1.488-.765 3.067-1.465 4.78-1.992 1.709-.529 3.557-.901 5.556-.885 1.974.016 4.211.543 5.987 1.882.886.652 1.618 1.467 2.198 2.325.579.833 1.015 1.85 1.316 2.554.723 1.698 1.278 3.428 1.532 5.345.241 1.889.055 4.05-.952 5.893-.992 1.851-2.606 3.121-4.183 3.971-1.6.849-3.229 1.381-4.82 1.786-3.188.791-6.253 1.149-9.146 1.403-2.892.252-5.61.417-8.11.608-5 .349-9.119.898-11.93 1.596-1.405.345-2.48.717-3.196 1.006-.361.141-.629.265-.81.35l-.275.126-.354-.135zm.472-.504c.175-.099.413-.233.721-.384a24.49 24.49 0 0 1 3.198-1.304c2.816-.972 6.99-1.786 11.98-2.503 2.495-.367 5.196-.724 8.019-1.172 2.814-.468 5.786-.951 8.653-1.848 1.428-.445 2.826-1.006 4.046-1.745 1.213-.744 2.2-1.686 2.708-2.799 1.071-2.201.212-5.301-1.129-8.012-1.287-2.906-3.174-4.005-5.84-3.814-2.636.202-5.428 1.48-7.994 2.845-2.59 1.387-5.029 2.993-7.317 4.573-2.278 1.599-4.369 3.236-6.274 4.785-1.883 1.574-3.603 3.043-5.049 4.423-1.463 1.364-2.678 2.615-3.619 3.685-.934 1.073-1.581 1.979-1.889 2.625a2.411 2.411 0 0 0-.214.645zM431.307 589.545a2.41 2.41 0 0 0-.088-.673c-.18-.692-.644-1.704-1.359-2.934-.722-1.228-1.679-2.686-2.858-4.302-1.16-1.629-2.571-3.396-4.123-5.298-1.578-1.881-3.322-3.884-5.257-5.884-1.948-1.984-4.04-4.022-6.321-5.873-2.261-1.825-4.762-3.607-7.312-4.304-2.581-.691-4.642.032-6.455 2.642-1.829 2.409-3.258 5.291-2.622 7.654.289 1.188 1.08 2.3 2.13 3.26 1.059.956 2.325 1.771 3.644 2.478 2.646 1.422 5.474 2.458 8.148 3.449 2.688.974 5.272 1.833 7.653 2.666 4.765 1.646 8.709 3.234 11.292 4.721a24.598 24.598 0 0 1 2.894 1.885c.273.206.48.383.634.513zm-.004.649-.247-.176c-.161-.117-.401-.29-.729-.496a23.763 23.763 0 0 0-2.948-1.592c-2.629-1.216-6.57-2.533-11.414-3.821-2.418-.659-5.057-1.334-7.85-2.129-2.793-.796-5.735-1.727-8.717-3.106-1.485-.698-2.984-1.528-4.395-2.664-1.388-1.132-2.733-2.684-3.358-4.689-.641-2-.415-4.156.179-5.966.612-1.835 1.483-3.429 2.515-4.96.428-.634 1.05-1.551 1.775-2.259.732-.733 1.604-1.395 2.597-1.868 1.998-.979 4.294-1.075 6.235-.717 1.967.361 3.71 1.076 5.288 1.918 1.583.841 3.002 1.827 4.318 2.859 2.616 2.087 4.812 4.38 6.704 6.682a63.006 63.006 0 0 1 4.895 6.766c1.392 2.172 2.492 4.272 3.401 6.163.887 1.905 1.556 3.621 1.977 5.094.428 1.467.621 2.689.57 3.566-.013.878-.448 1.388-.422 1.331l-.374.064z"/><path fill="#FFE082" d="M475.076 699.422a1170.594 1170.594 0 0 0-110.832-17.318c2.439-20.475 11.15-78.309 13.865-98.774a1224.243 1224.243 0 0 1 115.64 18.144c-4.316 20.177-14.63 77.735-18.673 97.948z"/><path fill="#37474F" d="M432.484 589.005s.059 1.123.038 3.069c-.006.973-.04 2.151-.097 3.5-.067 1.347-.142 2.866-.279 4.515l-.213 2.573-.291 2.743c-.188 1.885-.465 3.86-.784 5.898a149.05 149.05 0 0 1-1.203 6.25l-1.298 6.444-2.459 12.701c-.77 4.056-1.547 7.833-2.207 11.07-1.303 6.479-2.228 10.789-2.228 10.789l-.395-.062s.453-4.384 1.215-10.947c.374-3.283.802-7.114 1.324-11.208l1.588-12.838.758-6.529c.229-2.157.482-4.275.788-6.315.327-2.037.674-4.001 1.078-5.852l.571-2.699.593-2.513c.379-1.611.778-3.08 1.131-4.382a101.1 101.1 0 0 1 .99-3.36c.581-1.858.984-2.909.984-2.909l.396.062z"/><g fill="#37474F"><path d="M567.727 554.094s-.077-.056-.228-.197a3.486 3.486 0 0 1-.539-.834c-.367-.742-.67-1.873-.88-3.31-.218-1.439-.323-3.186-.32-5.184a57.31 57.31 0 0 1 .451-6.676 84.65 84.65 0 0 1 .573-3.786c.253-1.3.546-2.64.888-4.013a44.885 44.885 0 0 1 2.979-8.489c.699-1.427 1.495-2.869 2.501-4.255.999-1.388 2.201-2.746 3.801-3.887.809-.56 1.735-1.054 2.781-1.361a7.73 7.73 0 0 1 3.285-.253c1.093.154 2.096.539 2.971 1.02.885.496 1.591 1.057 2.327 1.705l.871.821.917.924a27.062 27.062 0 0 1 1.681 1.942c1.066 1.355 2.01 2.879 2.622 4.606.605 1.723.786 3.679.396 5.472-.376 1.8-1.231 3.348-2.183 4.666-1.959 2.616-4.29 4.502-6.513 6.17-2.237 1.657-4.401 3.089-6.369 4.436-1.97 1.342-3.748 2.592-5.259 3.776-1.513 1.181-2.757 2.292-3.716 3.27a18.79 18.79 0 0 0-2.026 2.439c-.21.301-.356.54-.452.703l-.296.489-.263-.194zm.193-.732c.079-.158.175-.355.307-.584a19.51 19.51 0 0 1 1.875-2.71c.896-1.102 2.087-2.35 3.544-3.667 1.451-1.325 3.16-2.728 5.032-4.223 1.869-1.497 3.911-3.083 5.949-4.846 2.013-1.768 4.122-3.687 5.605-5.974.725-1.139 1.279-2.358 1.454-3.594.183-1.234-.004-2.475-.503-3.684-.512-1.207-1.307-2.369-2.269-3.448a23.62 23.62 0 0 0-1.534-1.572l-.809-.726-.915-.765c-.491-.366-1.064-.765-1.593-1.005-.539-.244-1.06-.386-1.543-.415-.954-.066-1.85.317-2.762 1.07-1.809 1.566-3.239 4.132-4.406 6.626-1.2 2.521-2.162 5.125-3.045 7.62a73.58 73.58 0 0 0-1.167 3.689 78.798 78.798 0 0 0-1.003 3.496c-.592 2.259-1.096 4.348-1.47 6.213-.379 1.863-.646 3.502-.795 4.849-.149 1.346-.167 2.408-.077 3.088.026.248.085.427.125.562z"/><path d="M566.203 553.493c.02-.14.051-.325.039-.574-.014-.687-.193-1.733-.544-3.041-.353-1.308-.865-2.887-1.523-4.671-.653-1.787-1.468-3.775-2.397-5.918a81.989 81.989 0 0 0-1.522-3.303 75.054 75.054 0 0 0-1.715-3.469c-1.251-2.331-2.598-4.759-4.167-7.069-1.533-2.288-3.335-4.607-5.361-5.88-1.016-.606-1.959-.848-2.893-.638-.473.102-.967.322-1.462.645-.487.317-.993.798-1.422 1.235l-.788.895-.689.84a23.03 23.03 0 0 0-1.277 1.787c-.787 1.213-1.396 2.482-1.719 3.753-.309 1.27-.306 2.525.063 3.718.361 1.195 1.095 2.316 1.983 3.332 1.814 2.035 4.189 3.612 6.447 5.053 2.282 1.432 4.541 2.69 6.616 3.886 2.078 1.193 3.979 2.32 5.615 3.409 1.641 1.081 3.008 2.133 4.061 3.086a19.597 19.597 0 0 1 2.265 2.394c.163.205.288.385.39.53zm-.11.706-.185-.22c-.12-.146-.3-.361-.554-.626-.5-.534-1.28-1.277-2.372-2.103-1.097-.821-2.495-1.73-4.17-2.667-1.673-.941-3.621-1.906-5.771-2.933-2.149-1.032-4.506-2.119-6.969-3.416-2.451-1.312-5.041-2.822-7.375-5.11-1.141-1.158-2.222-2.558-2.866-4.28-.657-1.712-.776-3.673-.439-5.468.343-1.799 1.044-3.449 1.892-4.95.419-.758.887-1.472 1.367-2.175l.766-1.052.735-.943c.629-.752 1.241-1.414 2.041-2.039.792-.608 1.724-1.141 2.781-1.459a7.738 7.738 0 0 1 3.286-.249c1.08.144 2.071.493 2.955.923 1.754.885 3.15 2.044 4.347 3.264 1.205 1.217 2.211 2.521 3.119 3.826a44.92 44.92 0 0 1 4.233 7.938 77.947 77.947 0 0 1 1.487 3.832 84.39 84.39 0 0 1 1.141 3.655 57.289 57.289 0 0 1 1.46 6.53c.307 1.975.468 3.717.471 5.173.011 1.452-.116 2.616-.366 3.405a3.488 3.488 0 0 1-.406.906l-.426.459-.182-.221z"/></g><path fill="#FF8A80" d="M646.983 655.84a943.403 943.403 0 0 1-113.205 25.28l-20.716-129.849a812.19 812.19 0 0 0 97.431-21.758l36.49 126.327z"/><path fill="#37474F" d="M625.176 573.75s-1.786.387-4.921.908c-1.567.266-3.472.555-5.657.865-2.187.297-4.653.633-7.348.928l-4.204.463-4.502.416c-3.09.301-6.353.517-9.731.701-3.379.157-6.876.24-10.431.289l-10.773.227-21.2.569-9.755.247-8.743.172c-10.829.23-18.052.313-18.052.313l-.026-.499s7.191-.679 17.984-1.592l8.712-.752 9.727-.783 21.143-1.67 10.737-.91c3.54-.326 7.025-.613 10.403-.813 3.379-.173 6.646-.303 9.751-.329l4.521-.062 4.229.018c2.711.009 5.199.083 7.405.148 2.206.077 4.131.164 5.717.264 3.172.187 4.989.384 4.989.384l.025.498z"/><path fill="#37474F" d="M566.313 545.438s.441 2.018 1.057 5.562c.313 1.771.661 3.925 1.037 6.396.363 2.473.773 5.262 1.15 8.31l.591 4.755.552 5.094c.395 3.496.71 7.189.996 11.013.259 3.826.448 7.785.604 11.811l.553 12.199 1.211 24.006.542 11.046.437 9.901.86 20.443-.499.037-2.137-20.349-1.016-9.858-1.078-11.007-2.31-23.925-1.236-12.149c-.434-4.005-.826-7.95-1.128-11.772-.275-3.825-.503-7.525-.625-11.04l-.198-5.12-.11-4.79c-.073-3.071-.074-5.89-.077-8.389.011-2.5.04-4.681.091-6.479.091-3.595.233-5.656.233-5.656l.5-.039z"/><path fill="#FF5252" d="M634.464 565.607c-21.273 7.917-30.921 38.594-142.249 52.941-72.687 9.368-130.127-3.463-132.601-.99-2.474 2.474-.495 6.927 3.463 9.896 3.958 2.968 11.877 7.175 4.453 10.638-8.625 4.022-8.906 9.648-4.948 16.574 3.958 6.927-32.37 34.38-35.041 65.206-1.068 12.334-8.011 66.075 22.92 129.929 12.497 25.8-17.565 40.078-12.617 47.994 8.006 12.809 32.16-3.958 41.1 1.917 30.928 20.323 191.189 32.984 247.779 9.681 8.412-3.464 40.886 2.746 52.265-6.161 4.235-3.313-7.835-18.333-4.011-22.99 13.945-16.982 20.92-66.571 16.616-89.173-1.98-10.391-22.246-45.858-22.246-45.858s13.854-32.903 14.349-44.777c1.597-38.325-42.632-109.979-48.57-113.937-3.546-2.364 2.914-7.024 2.673-12.474-.162-3.674-.746-5.824-3.335-8.416z"/><path fill="#FFF" d="m479.521 633.917 1.871.125 2.248.144 3.033.095c1.132.054 2.396.026 3.767.037 1.371.022 2.854-.012 4.438-.052 3.167-.061 6.739-.249 10.627-.538 15.541-1.18 36.187-4.305 56.147-9.913 4.98-1.422 9.933-2.929 14.714-4.663 4.802-1.678 9.429-3.552 13.896-5.365 2.21-.953 4.413-1.837 6.512-2.808l3.131-1.41 3.014-1.453c3.964-1.922 7.59-3.955 10.876-5.933 3.234-2.046 6.171-3.996 8.585-5.96l1.776-1.406c.581-.446 1.063-.952 1.57-1.398.99-.914 1.971-1.704 2.706-2.548l2.088-2.171 1.411-1.725 1.196-1.444.016-.019a.25.25 0 0 1 .413.277l-.894 1.67a84.037 84.037 0 0 1-1.105 2.01l-1.754 2.559c-.635.988-1.495 1.942-2.386 3.034-.464.527-.907 1.122-1.443 1.656l-1.648 1.687c-1.104 1.208-2.437 2.304-3.804 3.516-1.343 1.25-2.91 2.343-4.489 3.577-1.617 1.174-3.341 2.339-5.136 3.531-1.849 1.089-3.718 2.314-5.737 3.373l-3.045 1.665-3.19 1.555c-2.133 1.096-4.411 1.974-6.681 2.981-4.611 1.826-9.435 3.554-14.42 5a266.964 266.964 0 0 1-15.166 4.083 293.013 293.013 0 0 1-15.331 3.249c-5.083.922-10.1 1.733-14.976 2.363-4.87.666-9.598 1.149-14.085 1.521-4.491.34-8.742.58-12.669.688-3.927.111-7.529.135-10.719.05a134.82 134.82 0 0 1-8.254-.392l-3.05-.26-2.237-.265-1.862-.224a.25.25 0 0 1 .046-.499zM409.113 665.332s-.766.262-2.101.572c-.67.155-1.472.33-2.411.469-.939.13-2.002.264-3.165.364-1.16.092-2.408.125-3.732.131-1.324.01-2.713-.094-4.146-.234a47.71 47.71 0 0 1-4.372-.817l-4.474-1.053c-1.5-.336-2.992-.713-4.454-1.111-1.466-.372-2.889-.847-4.263-1.283-1.367-.48-2.692-.913-3.917-1.442-1.236-.475-2.371-1.048-3.421-1.528-1.025-.569-1.982-1.019-2.77-1.571-.397-.262-.774-.492-1.109-.73l-.878-.725c-.546-.405-.875-.865-1.13-1.122a368.57 368.57 0 0 0-.375-.416.249.249 0 0 1 .018-.35.247.247 0 0 1 .315-.013l.039.029.423.322c.288.197.638.547 1.229.834l.928.517c.348.172.742.333 1.15.517.8.394 1.797.68 2.831 1.058 1.08.298 2.22.666 3.477.931 1.238.307 2.564.574 3.931.846 1.378.24 2.796.491 4.25.707 1.45.225 2.926.427 4.411.589 1.477.193 2.977.26 4.441.355 1.472.059 2.915.136 4.302.279 1.389.138 2.723.351 3.989.574 1.268.206 2.468.459 3.571.699 1.102.231 2.115.485 3.016.722.901.247 1.707.449 2.358.66 1.31.404 2.055.72 2.055.72a.268.268 0 0 1-.016.5zM370.813 634.896l.034.042c.007-.012.007-.04-.005-.059-.021-.025-.033-.024.013-.012.108.034.309.074.567.118.522.087 1.307.18 2.308.279 2.004.185 4.874.436 8.325.642 3.451.212 7.48.4 11.794.587 4.315.16 8.914.344 13.511.429 2.298.044 4.598.031 6.858-.014 2.262-.051 4.483-.086 6.628-.065 2.146.044 4.217.12 6.181.235 1.965.095 3.823.234 5.541.351 1.717.106 3.295.25 4.696.355 1.401.117 2.627.227 3.641.328 2.027.198 3.204.355 3.204.355a.258.258 0 0 1 .221.289.262.262 0 0 1-.168.208s-1.116.418-3.116.935c-1 .265-2.22.533-3.627.804a71 71 0 0 1-4.744.724 82.902 82.902 0 0 1-5.637.505c-2.002.123-4.114.16-6.295.118-4.363-.121-8.988-.728-13.607-1.135-4.62-.433-9.23-.915-13.537-1.495-4.31-.55-8.317-1.173-11.745-1.745-3.427-.578-6.278-1.089-8.263-1.538a38.38 38.38 0 0 1-2.303-.567 5.406 5.406 0 0 1-.622-.213.645.645 0 0 1-.278-.206 2.473 2.473 0 0 1-.028-.045.245.245 0 0 1 .399-.28l.054.07z"/><path fill="#FF8A80" d="m327.29 903.766-89.7.237 1.726-83.556 85.785-.238z"/><path fill="#E8EAF6" d="M575 835.431c.027.056-.423-.44-.464-1.317-.078-.875.076-2.102.457-3.582.374-1.485.988-3.222 1.815-5.154.849-1.919 1.882-4.053 3.204-6.268a63.063 63.063 0 0 1 4.677-6.918c1.817-2.361 3.94-4.722 6.489-6.891 1.283-1.073 2.669-2.104 4.225-2.995 1.55-.891 3.271-1.661 5.225-2.084 1.929-.419 4.227-.396 6.255.519 1.008.441 1.9 1.076 2.655 1.785.747.685 1.397 1.582 1.845 2.202 1.079 1.497 2 3.063 2.671 4.877.651 1.79.944 3.938.368 5.958-.561 2.024-1.855 3.618-3.208 4.793-1.374 1.18-2.846 2.057-4.309 2.802-2.937 1.472-5.848 2.497-8.614 3.38-2.766.882-5.382 1.641-7.778 2.376-4.801 1.441-8.698 2.882-11.287 4.181a23.797 23.797 0 0 0-2.896 1.685 12.82 12.82 0 0 0-.713.519 73.92 73.92 0 0 0-.241.184l-.376-.052zm.35-.596c.149-.135.351-.319.618-.533a24.61 24.61 0 0 1 2.833-1.976c2.533-1.568 6.426-3.28 11.136-5.076 2.353-.907 4.909-1.849 7.565-2.907 2.642-1.075 5.434-2.2 8.035-3.706 1.295-.749 2.536-1.603 3.563-2.592 1.019-.993 1.774-2.129 2.025-3.326.561-2.382-.959-5.217-2.863-7.567-1.895-2.552-3.978-3.208-6.536-2.437-2.526.777-4.97 2.638-7.172 4.533-2.222 1.923-4.248 4.026-6.132 6.071-1.871 2.061-3.55 4.118-5.068 6.048-1.49 1.95-2.845 3.761-3.952 5.426-1.127 1.652-2.038 3.14-2.72 4.39-.675 1.252-1.107 2.278-1.265 2.976a2.396 2.396 0 0 0-.067.676zM573.506 832.677a2.355 2.355 0 0 0-.234-.637c-.328-.636-1.003-1.521-1.971-2.563-.974-1.039-2.229-2.251-3.734-3.568-1.49-1.334-3.255-2.747-5.187-4.261-1.954-1.488-4.095-3.058-6.423-4.584-2.336-1.508-4.825-3.035-7.458-4.339-2.607-1.283-5.439-2.472-8.08-2.59-2.67-.106-4.521 1.052-5.716 3.997-1.254 2.752-2.015 5.878-.875 8.044.542 1.096 1.559 2.006 2.795 2.711 1.242.7 2.658 1.216 4.099 1.616 2.895.805 5.88 1.194 8.707 1.573 2.836.359 5.547.629 8.052.917 5.01.558 9.208 1.239 12.053 2.122 1.425.427 2.514.866 3.238 1.202.315.139.556.266.734.36zm.139.634-.279-.118a12.47 12.47 0 0 0-.821-.324 23.855 23.855 0 0 0-3.227-.905c-2.832-.608-6.966-1.026-11.975-1.217-2.504-.111-5.227-.189-8.125-.35-2.899-.162-5.974-.423-9.186-1.112-1.604-.354-3.248-.834-4.874-1.632-1.604-.799-3.257-2.017-4.307-3.836-1.065-1.811-1.319-3.963-1.138-5.86.194-1.924.693-3.671 1.362-5.391.279-.713.683-1.744 1.235-2.594.553-.876 1.258-1.714 2.123-2.394 1.733-1.395 3.952-1.993 5.925-2.071 1.998-.081 3.855.234 5.581.708 1.729.472 3.329 1.122 4.841 1.839 3.011 1.461 5.657 3.214 8.009 5.044a63.113 63.113 0 0 1 6.263 5.524c1.835 1.813 3.371 3.619 4.673 5.264 1.285 1.663 2.314 3.19 3.048 4.534.74 1.337 1.197 2.486 1.341 3.353.18.859-.131 1.452-.12 1.391l-.349.147z"/><path fill="#FFAF99" d="M635.257 930.035A1143.208 1143.208 0 0 0 525.751 932c-1.094-20.102-2.434-77.189-3.262-97.329a1195.158 1195.158 0 0 1 114.27-1.979c-.761 20.132-1.011 77.224-1.502 97.343z"/><path fill="#E8EAF6" d="M637.465 877.457s-1.852.363-5.102.871c-1.625.259-3.599.547-5.865.858-2.267.302-4.824.643-7.618.958l-4.357.494-4.668.465c-3.203.331-6.586.6-10.088.846-3.504.225-7.128.394-10.813.537l-11.168.497-21.979 1.077c-7.013.359-13.563.634-19.177.877l-18.714.78-.027-.399 18.645-1.802c5.594-.532 12.12-1.16 19.116-1.769l21.918-1.956 11.13-1.043c3.67-.365 7.284-.696 10.785-.956 3.503-.238 6.891-.437 10.108-.549l4.687-.182 4.384-.11c2.81-.072 5.39-.085 7.676-.099 2.287-.002 4.282.01 5.927.044 3.288.057 5.172.161 5.172.161l.028.4z"/><path fill="#E8EAF6" d="M574.536 831.891s.338 1.531.804 4.218c.237 1.343.499 2.976.78 4.85.271 1.875.579 3.99.857 6.302l.437 3.605.403 3.862c.289 2.65.513 5.451.712 8.35.179 2.9.3 5.902.395 8.954l.35 9.248.787 18.198c.267 5.807.456 11.231.624 15.88l.533 15.497-.399.027-1.555-15.429c-.458-4.629-.999-10.03-1.516-15.82l-1.666-18.14-.896-9.211c-.316-3.037-.6-6.027-.813-8.926-.191-2.9-.346-5.705-.416-8.37l-.12-3.881-.052-3.631c-.035-2.328-.014-4.465.002-6.359.028-1.895.067-3.548.122-4.911.1-2.725.229-4.287.229-4.287l.398-.026z"/><path fill="#FFF" d="m672.504 738.006-.598.577-.718.693-1.054.885c-.8.656-1.795 1.406-3.011 2.164-1.199.786-2.612 1.569-4.184 2.37a60.95 60.95 0 0 1-5.202 2.302c-1.875.756-3.903 1.4-6.007 2.048-2.112.61-4.307 1.219-6.566 1.692-2.254.501-4.56.934-6.875 1.306-2.313.389-4.636.715-6.928 1.035-2.294.293-4.563.531-6.765.601a64.916 64.916 0 0 1-12.019-.789 35.836 35.836 0 0 1-2.5-.443 37.918 37.918 0 0 1-2.24-.488c-1.399-.342-2.608-.684-3.591-1.021a28.432 28.432 0 0 1-2.261-.832l-.786-.333a.254.254 0 0 1-.135-.335.255.255 0 0 1 .222-.156h.008l.847-.042 2.366-.076 8.314-.267 5.504-.212c1.95-.09 4.001-.147 6.125-.213 4.245-.078 8.807.023 13.341-.399 4.535-.379 9.037-1.061 13.222-1.879a90.072 90.072 0 0 0 5.972-1.438 59.058 59.058 0 0 0 5.235-1.693c1.589-.611 3.031-1.225 4.26-1.86a22.404 22.404 0 0 0 1.71-.916c.519-.299 1.011-.559 1.415-.839l1.111-.721.797-.602.663-.5a.251.251 0 0 1 .351.048.25.25 0 0 1-.023.333zM669.553 745.356l-.236.668a11.236 11.236 0 0 1-.822 1.841c-.407.816-.985 1.693-1.707 2.689a29.085 29.085 0 0 1-2.689 3.088 34.08 34.08 0 0 1-3.639 3.145c-1.345 1.048-2.854 2.002-4.454 2.912a45.98 45.98 0 0 1-5.139 2.349c-1.782.715-3.611 1.367-5.43 2.03a110.834 110.834 0 0 1-5.477 1.806c-1.813.567-3.63 1.017-5.385 1.445-1.763.403-3.466.786-5.103 1.052-1.63.29-3.188.488-4.624.654-1.441.145-2.764.246-3.944.271-1.178.033-2.209.011-3.058-.083a10.611 10.611 0 0 1-1.129-.141c-.328-.051-.604-.093-.828-.159l-.682-.174a.25.25 0 0 1 .087-.49l.029.003.662.067c.212.031.482.031.797.033.314.009.676.008 1.084-.025.406-.016.855-.052 1.345-.114a24.039 24.039 0 0 0 1.58-.204c1.126-.166 2.39-.426 3.759-.741 2.735-.656 5.882-1.609 9.197-2.77 3.303-1.199 6.792-2.559 10.173-4.134a66.382 66.382 0 0 0 4.929-2.556l4.618-2.67 4.314-2.413a111.57 111.57 0 0 0 3.813-2.235 64.283 64.283 0 0 0 3.146-2.037c.485-.299.878-.632 1.28-.916.413-.281.756-.548 1.068-.799.309-.258.619-.456.867-.677.247-.221.458-.408.637-.554l.547-.45a.259.259 0 0 1 .365.035.258.258 0 0 1 .049.254z"/></svg>