<svg xmlns="http://www.w3.org/2000/svg" data-name="Layer 1" viewBox="0 0 512 512"><path fill="#554e56" d="M487.86 105.464a77.549 77.549 0 0 0-80.907-36.175L313.39 87.077v275.63l143.854-104.66a115.112 115.112 0 0 0 30.616-152.583ZM426.44 221.04l-71.678 52.148V124.935l56.532-10.747a32.212 32.212 0 0 1 33.574 15.011 69.286 69.286 0 0 1-18.428 91.84Z"/><path fill="#433f43" d="m381.294 114.188-56.532 10.747v148.252l30-21.826V124.935l45.371-8.625a32.086 32.086 0 0 0-18.839-2.122Z"/><path fill="#433f43" d="M487.86 105.464a77.549 77.549 0 0 0-80.907-36.175l-.6.114a78.286 78.286 0 0 1 51.507 36.061 115.112 115.112 0 0 1-30.616 152.584L313.39 340.88v21.826l143.854-104.658a115.112 115.112 0 0 0 30.616-152.584Z"/><path fill="#554e56" d="M94.776 357.293v62.882a17.47 17.47 0 0 1-17.431 17.509h-8.223a33.334 33.334 0 0 0-33.26 33.408 33.334 33.334 0 0 0 33.26 33.408h81.268a34.5 34.5 0 0 0 34.423-34.577v-112.63Z"/><path fill="#433f43" d="M169.813 357.293v97.63A34.5 34.5 0 0 1 135.39 489.5H54.122a32.99 32.99 0 0 1-14.743-3.461A33.237 33.237 0 0 0 69.122 504.5h81.268a34.5 34.5 0 0 0 34.423-34.577v-112.63Z"/><path fill="#554e56" d="M274.85 357.293v62.882a17.47 17.47 0 0 0 17.43 17.509h8.223a33.334 33.334 0 0 1 33.26 33.408 33.334 33.334 0 0 1-33.26 33.408h-81.267a34.5 34.5 0 0 1-34.423-34.577v-112.63Z"/><path fill="#433f43" d="M300.503 437.684h-8.222a17.47 17.47 0 0 1-17.431-17.51v-62.881h-90.037v15h75.037v62.882a17.47 17.47 0 0 0 17.43 17.509h8.223a33.334 33.334 0 0 1 33.26 33.408 33.378 33.378 0 0 1-3.516 14.947 33.417 33.417 0 0 0 18.516-29.947 33.334 33.334 0 0 0-33.26-33.408Z"/><path fill="#e53950" d="M371.82 50.23v226.88a124.08 124.08 0 0 1-3.96 31.17c-.31 1.18-.63 2.35-.97 3.52a123.362 123.362 0 0 1-96.11 86.99l-8.39 1.54a418.889 418.889 0 0 1-155.02-.75 123.445 123.445 0 0 1-95.26-87.91c-.17-.6-.33-1.2-.49-1.8-.17-.61-.33-1.23-.48-1.85a124.266 124.266 0 0 1-3.64-29.9V50.23a7.977 7.977 0 0 1 7.96-8h348.4a7.977 7.977 0 0 1 7.96 8Z"/><path fill="#ca2e43" d="M363.86 42.23h-22.04v219.88a124.08 124.08 0 0 1-3.96 31.17c-.31 1.18-.63 2.35-.97 3.52a123.362 123.362 0 0 1-96.11 86.99l-8.39 1.54a418.889 418.889 0 0 1-155.02-.75 123.226 123.226 0 0 1-16.102-4.257 122.472 122.472 0 0 0 46.102 19.257 418.889 418.889 0 0 0 155.02.75l8.39-1.54a123.362 123.362 0 0 0 96.11-86.99c.34-1.17.66-2.34.97-3.52a124.08 124.08 0 0 0 3.96-31.17V50.23a7.977 7.977 0 0 0-7.96-8Z"/><path fill="#554e56" d="M7.5 153.73h364.32v58.95H7.5z"/><path fill="#433f43" d="M341.82 153.73h30v58.95h-30zM234.85 148.82v68.76a11.395 11.395 0 0 1-11.4 11.4h-67.58a11.401 11.401 0 0 1-11.4-11.4v-68.76a11.4 11.4 0 0 1 11.4-11.39h67.58a11.393 11.393 0 0 1 11.4 11.39Z"/><path fill="#554e56" d="M181.97 184.21a7.503 7.503 0 0 1-7.5 7.5h-30v-15h30a7.503 7.503 0 0 1 7.5 7.5Z"/><path fill="#f1f6f9" d="M366.89 311.8a123.362 123.362 0 0 1-96.11 86.99l-8.39 1.54a418.889 418.889 0 0 1-155.02-.75 123.445 123.445 0 0 1-95.26-87.91 609.905 609.905 0 0 0 168.75 26.28 609.195 609.195 0 0 0 186.03-26.15Z"/><path fill="#dde8ef" d="m240.78 383.79-8.39 1.54a418.889 418.889 0 0 1-155.02-.75 123.226 123.226 0 0 1-16.102-4.257q1.228.842 2.48 1.654l.193.126q1.187.77 2.394 1.512l.187.116q5.18 3.175 10.701 5.848c.123.06.247.117.37.176q1.15.551 2.315 1.08l.568.255q1.094.49 2.2.959c.201.085.401.171.603.255q1.158.485 2.33.945c.152.06.304.123.457.182q2.82 1.1 5.713 2.064c.194.065.391.126.586.19q1.113.364 2.236.71c.31.095.62.186.932.28q.966.287 1.938.56.521.147 1.045.288.942.255 1.892.495c.351.09.702.18 1.055.266.673.164 1.349.32 2.026.474.307.07.612.143.92.21q1.474.322 2.961.612a418.889 418.889 0 0 0 155.02.75l8.39-1.54a123.362 123.362 0 0 0 96.11-86.99 605.416 605.416 0 0 1-40.847 10.856 123.071 123.071 0 0 1-85.263 61.134Z"/><path fill="#282828" d="M494.275 101.577a85.05 85.05 0 0 0-88.724-39.66l-26.23 4.987V50.227a15.497 15.497 0 0 0-15.462-15.498H15.46A15.497 15.497 0 0 0-.001 50.227v227.887a131.29 131.29 0 0 0 3.809 31.445c.018.087.029.173.05.26.19.768.403 1.527.607 2.288l.074.279c.118.433.224.87.346 1.303.03.105.073.204.107.306a131.356 131.356 0 0 0 82.281 87.867v18.309a9.982 9.982 0 0 1-9.93 10.009H69.12a40.908 40.908 0 0 0 0 81.816h81.268a41.856 41.856 0 0 0 34.423-18.101 41.856 41.856 0 0 0 34.422 18.101h81.269a40.908 40.908 0 0 0 0-81.816h-8.223a9.982 9.982 0 0 1-9.931-10.01v-16.307a130.734 130.734 0 0 0 84.508-70.786l94.798-68.969a122.611 122.611 0 0 0 32.621-162.53Zm-479.277 59.65h56.274v43.945H14.998ZM177.311 469.92a27.03 27.03 0 0 1-26.923 27.077H69.12a25.909 25.909 0 0 1 0-51.816h8.223a24.998 24.998 0 0 0 24.93-25.01V406.17c1.219.271 2.442.533 3.674.771a426.471 426.471 0 0 0 71.364 7.67Zm114.968-24.74h8.223a25.909 25.909 0 0 1 0 51.817h-81.269a27.03 27.03 0 0 1-26.922-27.077v-55.262a426.459 426.459 0 0 0 71.432-6.953l3.605-.66v13.127a24.999 24.999 0 0 0 24.931 25.009Zm72.041-168.072a116.847 116.847 0 0 1-3.568 28.697 601.342 601.342 0 0 1-63.005 15.004 7.5 7.5 0 1 0 2.682 14.757 616.842 616.842 0 0 0 54.474-12.495q-.374.872-.76 1.738c-.08.158-.15.318-.218.481a115.676 115.676 0 0 1-84.494 66.124l-8.39 1.537a411.249 411.249 0 0 1-75.83 6.761c-.134-.008-.265-.02-.4-.02-.108 0-.212.011-.319.015a411.104 411.104 0 0 1-75.699-7.492q-5.65-1.093-11.075-2.72a7.364 7.364 0 0 0-1.538-.466A116.137 116.137 0 0 1 23.96 322.91a618.052 618.052 0 0 0 156.788 22.535q4.499.066 8.999.066a622.166 622.166 0 0 0 75.52-4.599 7.5 7.5 0 0 0-1.827-14.889 608.773 608.773 0 0 1-82.473 4.424A602.66 602.66 0 0 1 18.308 305.7a116.343 116.343 0 0 1-3.31-27.585v-57.942H137.17a18.912 18.912 0 0 0 18.7 16.307h67.58a18.912 18.912 0 0 0 18.698-16.307H364.32ZM174.467 176.705H151.97V148.82a3.903 3.903 0 0 1 3.898-3.898h67.58a3.903 3.903 0 0 1 3.899 3.898v68.76a3.903 3.903 0 0 1-3.899 3.899h-67.58a3.903 3.903 0 0 1-3.898-3.899v-25.875h22.496a7.5 7.5 0 1 0 0-15Zm67.88 28.467v-43.944h50.699v43.944Zm121.973 0h-56.274v-43.944h56.274Zm0-129.333v70.389H242.148a18.912 18.912 0 0 0-18.699-16.306h-67.58a18.92 18.92 0 0 0-18.898 18.898v56.352H86.272v-43.944h28.196a7.5 7.5 0 1 0 0-15h-99.47V50.227a.48.48 0 0 1 .461-.498h348.4a.48.48 0 0 1 .461.498Zm15 52.057 33.372-6.344a24.833 24.833 0 0 1 25.757 11.526 61.787 61.787 0 0 1-16.423 81.893L379.32 246.04Zm115.558 58.388a107.055 107.055 0 0 1-42.048 65.695l-77.204 56.17a131.898 131.898 0 0 0 3.694-31.042V264.59l51.53-37.49a76.787 76.787 0 0 0 20.433-101.786 39.895 39.895 0 0 0-41.391-18.498l-30.572 5.812V82.172l29.03-5.519a70.05 70.05 0 0 1 73.091 32.69 107.418 107.418 0 0 1 13.437 76.941Z"/></svg>